G04 #@! TF.FileFunction,Copper,L2,Bot,Signal*
%FSLAX46Y46*%
G04 Gerber Fmt 4.6, Leading zero omitted, Abs format (unit mm)*
G04 Created by KiCad (PCBNEW 4.0.5+dfsg1-4) date Sun Jul 16 22:59:55 2017*
%MOMM*%
%LPD*%
G01*
G04 APERTURE LIST*
%ADD10C,0.100000*%
%ADD11R,2.000000X1.600000*%
%ADD12R,1.600000X2.000000*%
%ADD13R,1.700000X1.700000*%
%ADD14O,1.700000X1.700000*%
%ADD15C,1.500000*%
%ADD16C,3.000000*%
%ADD17R,2.000000X1.700000*%
%ADD18C,0.600000*%
%ADD19C,0.400000*%
%ADD20C,0.250000*%
%ADD21C,0.254000*%
G04 APERTURE END LIST*
D10*
D11*
X182050000Y-105850000D03*
X186050000Y-105850000D03*
D12*
X176250000Y-109050000D03*
X176250000Y-113050000D03*
X172450000Y-96450000D03*
X172450000Y-92450000D03*
X172650000Y-109050000D03*
X172650000Y-113050000D03*
X165250000Y-103500000D03*
X165250000Y-107500000D03*
X176050000Y-96450000D03*
X176050000Y-92450000D03*
X153250000Y-104000000D03*
X153250000Y-108000000D03*
X153250000Y-101250000D03*
X153250000Y-97250000D03*
X147850000Y-105050000D03*
X147850000Y-109050000D03*
X140650000Y-101850000D03*
X140650000Y-105850000D03*
D13*
X138850000Y-87850000D03*
D14*
X141390000Y-87850000D03*
X143930000Y-87850000D03*
X146470000Y-87850000D03*
D15*
X132250000Y-102860000D03*
X132250000Y-100320000D03*
X132250000Y-98290000D03*
X132250000Y-95750000D03*
D16*
X129580000Y-105910000D03*
X129580000Y-92190000D03*
D13*
X129655000Y-119305000D03*
D14*
X129655000Y-116765000D03*
X129655000Y-114225000D03*
D17*
X168650000Y-101450000D03*
X172650000Y-101450000D03*
D13*
X163750000Y-116500000D03*
D14*
X163750000Y-119040000D03*
X161210000Y-116500000D03*
X161210000Y-119040000D03*
X158670000Y-116500000D03*
X158670000Y-119040000D03*
D18*
X151250000Y-115500000D03*
X153500000Y-118000000D03*
X180650000Y-104250000D03*
X176050000Y-100850000D03*
X172850000Y-104650000D03*
X176050000Y-104650000D03*
X174250000Y-103050000D03*
X142750000Y-101750000D03*
X159750000Y-100750000D03*
X160750000Y-103250000D03*
X151500000Y-103250000D03*
X150750000Y-114000000D03*
X142500000Y-114000000D03*
X146000000Y-105000000D03*
X143500000Y-100500000D03*
X142000000Y-100500000D03*
X150500000Y-98000000D03*
X155750000Y-101500000D03*
X155750000Y-103250000D03*
X177500000Y-116500000D03*
X149750000Y-107500000D03*
X149750000Y-105000000D03*
X170750000Y-100750000D03*
X138650000Y-101650000D03*
X139050000Y-115450000D03*
X163750000Y-107000000D03*
X166850000Y-105450000D03*
X166850000Y-114250000D03*
X160500000Y-105250000D03*
X158250000Y-100000000D03*
X138250000Y-98500000D03*
X174850000Y-110850000D03*
X178250000Y-108650000D03*
X184450000Y-109850000D03*
X184450000Y-117250000D03*
X174650000Y-100850000D03*
X188450000Y-109650000D03*
X184650000Y-101650000D03*
X156500000Y-100750000D03*
X157000000Y-111000000D03*
X159000000Y-105250000D03*
X159000000Y-111750000D03*
X159750000Y-112500000D03*
X159750000Y-104000000D03*
X161250000Y-101500000D03*
X164500000Y-101500000D03*
D19*
X151250000Y-115750000D02*
X151250000Y-115500000D01*
X153500000Y-118000000D02*
X151250000Y-115750000D01*
X182050000Y-105850000D02*
X182050000Y-105650000D01*
X182050000Y-105650000D02*
X180650000Y-104250000D01*
X146000000Y-105000000D02*
X147800000Y-105000000D01*
X147800000Y-105000000D02*
X147850000Y-105050000D01*
X142750000Y-101750000D02*
X140750000Y-101750000D01*
X140750000Y-101750000D02*
X140650000Y-101850000D01*
X176050000Y-96450000D02*
X176050000Y-100850000D01*
X172450000Y-96450000D02*
X172450000Y-97250000D01*
X172450000Y-97250000D02*
X176050000Y-100850000D01*
X174250000Y-103050000D02*
X174250000Y-102650000D01*
X174250000Y-102650000D02*
X176050000Y-100850000D01*
X172650000Y-109050000D02*
X172650000Y-104850000D01*
X172650000Y-104850000D02*
X172850000Y-104650000D01*
X176250000Y-109050000D02*
X176250000Y-104850000D01*
X176250000Y-104850000D02*
X176050000Y-104650000D01*
X174250000Y-103050000D02*
X174250000Y-103250000D01*
X174250000Y-103250000D02*
X172850000Y-104650000D01*
X174250000Y-103050000D02*
X175850000Y-104650000D01*
X175850000Y-104650000D02*
X176050000Y-104650000D01*
X165250000Y-103500000D02*
X161000000Y-103500000D01*
X161000000Y-103500000D02*
X160750000Y-103250000D01*
X153250000Y-101250000D02*
X152000000Y-101250000D01*
X152000000Y-101250000D02*
X151500000Y-101250000D01*
X153250000Y-104000000D02*
X151500000Y-104000000D01*
X142750000Y-108250000D02*
X142750000Y-101750000D01*
X151500000Y-103250000D02*
X151500000Y-101250000D01*
X159750000Y-102250000D02*
X159750000Y-100750000D01*
X160750000Y-103250000D02*
X159750000Y-102250000D01*
X151500000Y-113250000D02*
X151500000Y-104000000D01*
X151500000Y-104000000D02*
X151500000Y-103250000D01*
X150750000Y-114000000D02*
X151500000Y-113250000D01*
X142500000Y-114000000D02*
X142750000Y-113750000D01*
X142750000Y-113750000D02*
X142750000Y-108250000D01*
X142750000Y-108250000D02*
X146000000Y-105000000D01*
D20*
X142000000Y-100500000D02*
X143500000Y-100500000D01*
X151250000Y-97250000D02*
X150500000Y-98000000D01*
X151250000Y-97250000D02*
X153250000Y-97250000D01*
X155750000Y-103250000D02*
X155750000Y-101500000D01*
X149750000Y-105000000D02*
X149750000Y-107500000D01*
X170050000Y-101450000D02*
X168650000Y-101450000D01*
X170750000Y-100750000D02*
X170050000Y-101450000D01*
D19*
X138650000Y-115050000D02*
X138650000Y-101650000D01*
X139050000Y-115450000D02*
X138650000Y-115050000D01*
D20*
X163750000Y-116500000D02*
X163750000Y-114000000D01*
X163750000Y-107000000D02*
X163750000Y-114000000D01*
X166850000Y-114250000D02*
X166850000Y-105450000D01*
X163000000Y-113250000D02*
X163000000Y-114500000D01*
X160500000Y-105250000D02*
X163000000Y-107750000D01*
X163000000Y-107750000D02*
X163000000Y-113250000D01*
X162500000Y-117750000D02*
X161210000Y-119040000D01*
X162500000Y-115000000D02*
X162500000Y-117750000D01*
X163000000Y-114500000D02*
X162500000Y-115000000D01*
X158250000Y-116080000D02*
X158250000Y-112500000D01*
X158250000Y-100000000D02*
X158250000Y-112500000D01*
X158250000Y-116080000D02*
X158670000Y-116500000D01*
X132250000Y-100320000D02*
X134680000Y-100320000D01*
X136500000Y-98500000D02*
X138250000Y-98500000D01*
X134680000Y-100320000D02*
X136500000Y-98500000D01*
X175250000Y-110850000D02*
X174850000Y-110850000D01*
X177450000Y-110850000D02*
X175250000Y-110850000D01*
X177850000Y-110450000D02*
X177450000Y-110850000D01*
X177850000Y-109050000D02*
X177850000Y-110450000D01*
X178250000Y-108650000D02*
X177850000Y-109050000D01*
X184450000Y-109850000D02*
X184450000Y-117250000D01*
X172650000Y-101450000D02*
X174050000Y-101450000D01*
X174050000Y-101450000D02*
X174650000Y-100850000D01*
X187450000Y-109650000D02*
X188450000Y-109650000D01*
X184050000Y-106250000D02*
X187450000Y-109650000D01*
X184050000Y-102250000D02*
X184050000Y-106250000D01*
X184650000Y-101650000D02*
X184050000Y-102250000D01*
X156500000Y-110500000D02*
X156500000Y-100750000D01*
X157000000Y-111000000D02*
X156500000Y-110500000D01*
X159000000Y-111750000D02*
X159000000Y-105250000D01*
X159750000Y-105250000D02*
X159750000Y-104000000D01*
X159750000Y-112500000D02*
X159750000Y-105250000D01*
X164500000Y-101500000D02*
X161250000Y-101500000D01*
D21*
G36*
X194123000Y-123123000D02*
X119377000Y-123123000D01*
X119377000Y-116765000D01*
X128140907Y-116765000D01*
X128253946Y-117333285D01*
X128575853Y-117815054D01*
X128617452Y-117842850D01*
X128569683Y-117851838D01*
X128353559Y-117990910D01*
X128208569Y-118203110D01*
X128157560Y-118455000D01*
X128157560Y-120155000D01*
X128201838Y-120390317D01*
X128340910Y-120606441D01*
X128553110Y-120751431D01*
X128805000Y-120802440D01*
X130505000Y-120802440D01*
X130740317Y-120758162D01*
X130956441Y-120619090D01*
X131101431Y-120406890D01*
X131152440Y-120155000D01*
X131152440Y-119396892D01*
X157228514Y-119396892D01*
X157474817Y-119921358D01*
X157903076Y-120311645D01*
X158313110Y-120481476D01*
X158543000Y-120360155D01*
X158543000Y-119167000D01*
X157349181Y-119167000D01*
X157228514Y-119396892D01*
X131152440Y-119396892D01*
X131152440Y-118455000D01*
X131108162Y-118219683D01*
X130969090Y-118003559D01*
X130756890Y-117858569D01*
X130689459Y-117844914D01*
X130734147Y-117815054D01*
X131056054Y-117333285D01*
X131169093Y-116765000D01*
X131056054Y-116196715D01*
X130734147Y-115714946D01*
X130393447Y-115487298D01*
X130536358Y-115420183D01*
X130926645Y-114991924D01*
X131096476Y-114581890D01*
X130975155Y-114352000D01*
X129782000Y-114352000D01*
X129782000Y-114372000D01*
X129528000Y-114372000D01*
X129528000Y-114352000D01*
X128334845Y-114352000D01*
X128213524Y-114581890D01*
X128383355Y-114991924D01*
X128773642Y-115420183D01*
X128916553Y-115487298D01*
X128575853Y-115714946D01*
X128253946Y-116196715D01*
X128140907Y-116765000D01*
X119377000Y-116765000D01*
X119377000Y-113868110D01*
X128213524Y-113868110D01*
X128334845Y-114098000D01*
X129528000Y-114098000D01*
X129528000Y-112904181D01*
X129782000Y-112904181D01*
X129782000Y-114098000D01*
X130975155Y-114098000D01*
X131096476Y-113868110D01*
X130926645Y-113458076D01*
X130536358Y-113029817D01*
X130011892Y-112783514D01*
X129782000Y-112904181D01*
X129528000Y-112904181D01*
X129298108Y-112783514D01*
X128773642Y-113029817D01*
X128383355Y-113458076D01*
X128213524Y-113868110D01*
X119377000Y-113868110D01*
X119377000Y-106332815D01*
X127444630Y-106332815D01*
X127768980Y-107117800D01*
X128369041Y-107718909D01*
X129153459Y-108044628D01*
X130002815Y-108045370D01*
X130787800Y-107721020D01*
X131388909Y-107120959D01*
X131714628Y-106336541D01*
X131715370Y-105487185D01*
X131391020Y-104702200D01*
X130790959Y-104101091D01*
X130141754Y-103831517D01*
X131458088Y-103831517D01*
X131526077Y-104072460D01*
X132045171Y-104257201D01*
X132595448Y-104229230D01*
X132973923Y-104072460D01*
X133041912Y-103831517D01*
X132250000Y-103039605D01*
X131458088Y-103831517D01*
X130141754Y-103831517D01*
X130006541Y-103775372D01*
X129157185Y-103774630D01*
X128372200Y-104098980D01*
X127771091Y-104699041D01*
X127445372Y-105483459D01*
X127444630Y-106332815D01*
X119377000Y-106332815D01*
X119377000Y-102655171D01*
X130852799Y-102655171D01*
X130880770Y-103205448D01*
X131037540Y-103583923D01*
X131278483Y-103651912D01*
X132070395Y-102860000D01*
X132429605Y-102860000D01*
X133221517Y-103651912D01*
X133462460Y-103583923D01*
X133647201Y-103064829D01*
X133619230Y-102514552D01*
X133462460Y-102136077D01*
X133221517Y-102068088D01*
X132429605Y-102860000D01*
X132070395Y-102860000D01*
X131278483Y-102068088D01*
X131037540Y-102136077D01*
X130852799Y-102655171D01*
X119377000Y-102655171D01*
X119377000Y-96024285D01*
X130864760Y-96024285D01*
X131075169Y-96533515D01*
X131464436Y-96923461D01*
X131696870Y-97019976D01*
X131466485Y-97115169D01*
X131076539Y-97504436D01*
X130865241Y-98013298D01*
X130864760Y-98564285D01*
X131075169Y-99073515D01*
X131306313Y-99305062D01*
X131076539Y-99534436D01*
X130865241Y-100043298D01*
X130864760Y-100594285D01*
X131075169Y-101103515D01*
X131464436Y-101493461D01*
X131680979Y-101583377D01*
X131526077Y-101647540D01*
X131458088Y-101888483D01*
X132250000Y-102680395D01*
X133041912Y-101888483D01*
X133026868Y-101835167D01*
X137714838Y-101835167D01*
X137815000Y-102077578D01*
X137815000Y-115050000D01*
X137878561Y-115369541D01*
X137908724Y-115414683D01*
X138059566Y-115640434D01*
X138157465Y-115738333D01*
X138256883Y-115978943D01*
X138519673Y-116242192D01*
X138863201Y-116384838D01*
X139235167Y-116385162D01*
X139578943Y-116243117D01*
X139842192Y-115980327D01*
X139984838Y-115636799D01*
X139985162Y-115264833D01*
X139843117Y-114921057D01*
X139580327Y-114657808D01*
X139485000Y-114618225D01*
X139485000Y-107383026D01*
X139490301Y-107388327D01*
X139723690Y-107485000D01*
X140364250Y-107485000D01*
X140523000Y-107326250D01*
X140523000Y-105977000D01*
X140503000Y-105977000D01*
X140503000Y-105723000D01*
X140523000Y-105723000D01*
X140523000Y-104373750D01*
X140364250Y-104215000D01*
X139723690Y-104215000D01*
X139490301Y-104311673D01*
X139485000Y-104316974D01*
X139485000Y-103369146D01*
X139598110Y-103446431D01*
X139850000Y-103497440D01*
X141450000Y-103497440D01*
X141685317Y-103453162D01*
X141901441Y-103314090D01*
X141915000Y-103294246D01*
X141915000Y-104416975D01*
X141809699Y-104311673D01*
X141576310Y-104215000D01*
X140935750Y-104215000D01*
X140777000Y-104373750D01*
X140777000Y-105723000D01*
X140797000Y-105723000D01*
X140797000Y-105977000D01*
X140777000Y-105977000D01*
X140777000Y-107326250D01*
X140935750Y-107485000D01*
X141576310Y-107485000D01*
X141809699Y-107388327D01*
X141915000Y-107283025D01*
X141915000Y-113262842D01*
X141707808Y-113469673D01*
X141565162Y-113813201D01*
X141564838Y-114185167D01*
X141706883Y-114528943D01*
X141969673Y-114792192D01*
X142313201Y-114934838D01*
X142685167Y-114935162D01*
X143028943Y-114793117D01*
X143292192Y-114530327D01*
X143421292Y-114219421D01*
X143424246Y-114215000D01*
X143444179Y-114185167D01*
X149814838Y-114185167D01*
X149956883Y-114528943D01*
X150219673Y-114792192D01*
X150513414Y-114914164D01*
X150457808Y-114969673D01*
X150315162Y-115313201D01*
X150314838Y-115685167D01*
X150456883Y-116028943D01*
X150473870Y-116045960D01*
X150478561Y-116069541D01*
X150627332Y-116292192D01*
X150659566Y-116340434D01*
X152607466Y-118288335D01*
X152706883Y-118528943D01*
X152969673Y-118792192D01*
X153313201Y-118934838D01*
X153685167Y-118935162D01*
X154028943Y-118793117D01*
X154292192Y-118530327D01*
X154434838Y-118186799D01*
X154435162Y-117814833D01*
X154293117Y-117471057D01*
X154030327Y-117207808D01*
X153788091Y-117107222D01*
X152184997Y-115504129D01*
X152185162Y-115314833D01*
X152043117Y-114971057D01*
X151780327Y-114707808D01*
X151486586Y-114585836D01*
X151542192Y-114530327D01*
X151642778Y-114288090D01*
X152090434Y-113840434D01*
X152107540Y-113814833D01*
X152271439Y-113569541D01*
X152335000Y-113250000D01*
X152335000Y-109635000D01*
X152964250Y-109635000D01*
X153123000Y-109476250D01*
X153123000Y-108127000D01*
X153377000Y-108127000D01*
X153377000Y-109476250D01*
X153535750Y-109635000D01*
X154176310Y-109635000D01*
X154409699Y-109538327D01*
X154588327Y-109359698D01*
X154685000Y-109126309D01*
X154685000Y-108285750D01*
X154526250Y-108127000D01*
X153377000Y-108127000D01*
X153123000Y-108127000D01*
X153103000Y-108127000D01*
X153103000Y-107873000D01*
X153123000Y-107873000D01*
X153123000Y-106523750D01*
X153377000Y-106523750D01*
X153377000Y-107873000D01*
X154526250Y-107873000D01*
X154685000Y-107714250D01*
X154685000Y-106873691D01*
X154588327Y-106640302D01*
X154409699Y-106461673D01*
X154176310Y-106365000D01*
X153535750Y-106365000D01*
X153377000Y-106523750D01*
X153123000Y-106523750D01*
X152964250Y-106365000D01*
X152335000Y-106365000D01*
X152335000Y-105624152D01*
X152450000Y-105647440D01*
X154050000Y-105647440D01*
X154285317Y-105603162D01*
X154501441Y-105464090D01*
X154646431Y-105251890D01*
X154697440Y-105000000D01*
X154697440Y-103000000D01*
X154653162Y-102764683D01*
X154562810Y-102624273D01*
X154646431Y-102501890D01*
X154697440Y-102250000D01*
X154697440Y-100935167D01*
X155564838Y-100935167D01*
X155706883Y-101278943D01*
X155740000Y-101312118D01*
X155740000Y-110500000D01*
X155797852Y-110790839D01*
X155962599Y-111037401D01*
X156064878Y-111139680D01*
X156064838Y-111185167D01*
X156206883Y-111528943D01*
X156469673Y-111792192D01*
X156813201Y-111934838D01*
X157185167Y-111935162D01*
X157490000Y-111809208D01*
X157490000Y-115615331D01*
X157298039Y-115902622D01*
X157185000Y-116470907D01*
X157185000Y-116529093D01*
X157298039Y-117097378D01*
X157619946Y-117579147D01*
X157903101Y-117768345D01*
X157903076Y-117768355D01*
X157474817Y-118158642D01*
X157228514Y-118683108D01*
X157349181Y-118913000D01*
X158543000Y-118913000D01*
X158543000Y-118893000D01*
X158797000Y-118893000D01*
X158797000Y-118913000D01*
X158817000Y-118913000D01*
X158817000Y-119167000D01*
X158797000Y-119167000D01*
X158797000Y-120360155D01*
X159026890Y-120481476D01*
X159436924Y-120311645D01*
X159865183Y-119921358D01*
X159932298Y-119778447D01*
X160159946Y-120119147D01*
X160641715Y-120441054D01*
X161210000Y-120554093D01*
X161778285Y-120441054D01*
X162260054Y-120119147D01*
X162480000Y-119789974D01*
X162699946Y-120119147D01*
X163181715Y-120441054D01*
X163750000Y-120554093D01*
X164318285Y-120441054D01*
X164800054Y-120119147D01*
X165121961Y-119637378D01*
X165235000Y-119069093D01*
X165235000Y-119010907D01*
X165121961Y-118442622D01*
X164800054Y-117960853D01*
X164798821Y-117960029D01*
X164835317Y-117953162D01*
X165051441Y-117814090D01*
X165196431Y-117601890D01*
X165247440Y-117350000D01*
X165247440Y-115650000D01*
X165203162Y-115414683D01*
X165064090Y-115198559D01*
X164851890Y-115053569D01*
X164600000Y-115002560D01*
X164510000Y-115002560D01*
X164510000Y-109135000D01*
X164964250Y-109135000D01*
X165123000Y-108976250D01*
X165123000Y-107627000D01*
X165103000Y-107627000D01*
X165103000Y-107373000D01*
X165123000Y-107373000D01*
X165123000Y-106023750D01*
X164964250Y-105865000D01*
X164323690Y-105865000D01*
X164090301Y-105961673D01*
X163972138Y-106079836D01*
X163936799Y-106065162D01*
X163564833Y-106064838D01*
X163221057Y-106206883D01*
X162957808Y-106469673D01*
X162909885Y-106585083D01*
X161435122Y-105110320D01*
X161435162Y-105064833D01*
X161293117Y-104721057D01*
X161030327Y-104457808D01*
X160686799Y-104315162D01*
X160631557Y-104315114D01*
X160656375Y-104255346D01*
X160680459Y-104271439D01*
X161000000Y-104335000D01*
X163802560Y-104335000D01*
X163802560Y-104500000D01*
X163846838Y-104735317D01*
X163985910Y-104951441D01*
X164198110Y-105096431D01*
X164450000Y-105147440D01*
X165963230Y-105147440D01*
X165915162Y-105263201D01*
X165914838Y-105635167D01*
X166009803Y-105865000D01*
X165535750Y-105865000D01*
X165377000Y-106023750D01*
X165377000Y-107373000D01*
X165397000Y-107373000D01*
X165397000Y-107627000D01*
X165377000Y-107627000D01*
X165377000Y-108976250D01*
X165535750Y-109135000D01*
X166090000Y-109135000D01*
X166090000Y-113687537D01*
X166057808Y-113719673D01*
X165915162Y-114063201D01*
X165914838Y-114435167D01*
X166056883Y-114778943D01*
X166319673Y-115042192D01*
X166663201Y-115184838D01*
X167035167Y-115185162D01*
X167378943Y-115043117D01*
X167642192Y-114780327D01*
X167784838Y-114436799D01*
X167785162Y-114064833D01*
X167643117Y-113721057D01*
X167610000Y-113687882D01*
X167610000Y-113335750D01*
X171215000Y-113335750D01*
X171215000Y-114176309D01*
X171311673Y-114409698D01*
X171490301Y-114588327D01*
X171723690Y-114685000D01*
X172364250Y-114685000D01*
X172523000Y-114526250D01*
X172523000Y-113177000D01*
X172777000Y-113177000D01*
X172777000Y-114526250D01*
X172935750Y-114685000D01*
X173576310Y-114685000D01*
X173809699Y-114588327D01*
X173988327Y-114409698D01*
X174085000Y-114176309D01*
X174085000Y-113335750D01*
X174815000Y-113335750D01*
X174815000Y-114176309D01*
X174911673Y-114409698D01*
X175090301Y-114588327D01*
X175323690Y-114685000D01*
X175964250Y-114685000D01*
X176123000Y-114526250D01*
X176123000Y-113177000D01*
X176377000Y-113177000D01*
X176377000Y-114526250D01*
X176535750Y-114685000D01*
X177176310Y-114685000D01*
X177409699Y-114588327D01*
X177588327Y-114409698D01*
X177685000Y-114176309D01*
X177685000Y-113335750D01*
X177526250Y-113177000D01*
X176377000Y-113177000D01*
X176123000Y-113177000D01*
X174973750Y-113177000D01*
X174815000Y-113335750D01*
X174085000Y-113335750D01*
X173926250Y-113177000D01*
X172777000Y-113177000D01*
X172523000Y-113177000D01*
X171373750Y-113177000D01*
X171215000Y-113335750D01*
X167610000Y-113335750D01*
X167610000Y-111923691D01*
X171215000Y-111923691D01*
X171215000Y-112764250D01*
X171373750Y-112923000D01*
X172523000Y-112923000D01*
X172523000Y-111573750D01*
X172777000Y-111573750D01*
X172777000Y-112923000D01*
X173926250Y-112923000D01*
X174085000Y-112764250D01*
X174085000Y-111923691D01*
X173988327Y-111690302D01*
X173809699Y-111511673D01*
X173576310Y-111415000D01*
X172935750Y-111415000D01*
X172777000Y-111573750D01*
X172523000Y-111573750D01*
X172364250Y-111415000D01*
X171723690Y-111415000D01*
X171490301Y-111511673D01*
X171311673Y-111690302D01*
X171215000Y-111923691D01*
X167610000Y-111923691D01*
X167610000Y-106012463D01*
X167642192Y-105980327D01*
X167784838Y-105636799D01*
X167785162Y-105264833D01*
X167643117Y-104921057D01*
X167380327Y-104657808D01*
X167036799Y-104515162D01*
X166694430Y-104514864D01*
X166697440Y-104500000D01*
X166697440Y-102500000D01*
X166653162Y-102264683D01*
X166514090Y-102048559D01*
X166301890Y-101903569D01*
X166050000Y-101852560D01*
X165366008Y-101852560D01*
X165414511Y-101735750D01*
X167015000Y-101735750D01*
X167015000Y-102426310D01*
X167111673Y-102659699D01*
X167290302Y-102838327D01*
X167523691Y-102935000D01*
X168364250Y-102935000D01*
X168523000Y-102776250D01*
X168523000Y-101577000D01*
X168777000Y-101577000D01*
X168777000Y-102776250D01*
X168935750Y-102935000D01*
X169776309Y-102935000D01*
X170009698Y-102838327D01*
X170188327Y-102659699D01*
X170285000Y-102426310D01*
X170285000Y-101735750D01*
X170126250Y-101577000D01*
X168777000Y-101577000D01*
X168523000Y-101577000D01*
X167173750Y-101577000D01*
X167015000Y-101735750D01*
X165414511Y-101735750D01*
X165434838Y-101686799D01*
X165435162Y-101314833D01*
X165293117Y-100971057D01*
X165030327Y-100707808D01*
X164686799Y-100565162D01*
X164314833Y-100564838D01*
X163971057Y-100706883D01*
X163937882Y-100740000D01*
X161812463Y-100740000D01*
X161780327Y-100707808D01*
X161436799Y-100565162D01*
X161064833Y-100564838D01*
X160721057Y-100706883D01*
X160685007Y-100742870D01*
X160685162Y-100564833D01*
X160647503Y-100473690D01*
X167015000Y-100473690D01*
X167015000Y-101164250D01*
X167173750Y-101323000D01*
X168523000Y-101323000D01*
X168523000Y-100123750D01*
X168777000Y-100123750D01*
X168777000Y-101323000D01*
X170126250Y-101323000D01*
X170285000Y-101164250D01*
X170285000Y-100473690D01*
X170188327Y-100240301D01*
X170009698Y-100061673D01*
X169776309Y-99965000D01*
X168935750Y-99965000D01*
X168777000Y-100123750D01*
X168523000Y-100123750D01*
X168364250Y-99965000D01*
X167523691Y-99965000D01*
X167290302Y-100061673D01*
X167111673Y-100240301D01*
X167015000Y-100473690D01*
X160647503Y-100473690D01*
X160543117Y-100221057D01*
X160280327Y-99957808D01*
X159936799Y-99815162D01*
X159564833Y-99814838D01*
X159221057Y-99956883D01*
X159185007Y-99992870D01*
X159185162Y-99814833D01*
X159043117Y-99471057D01*
X158780327Y-99207808D01*
X158436799Y-99065162D01*
X158064833Y-99064838D01*
X157721057Y-99206883D01*
X157457808Y-99469673D01*
X157315162Y-99813201D01*
X157314838Y-100185167D01*
X157456883Y-100528943D01*
X157490000Y-100562118D01*
X157490000Y-110191063D01*
X157260000Y-110095558D01*
X157260000Y-101312463D01*
X157292192Y-101280327D01*
X157434838Y-100936799D01*
X157435162Y-100564833D01*
X157293117Y-100221057D01*
X157030327Y-99957808D01*
X156686799Y-99815162D01*
X156314833Y-99814838D01*
X155971057Y-99956883D01*
X155707808Y-100219673D01*
X155565162Y-100563201D01*
X155564838Y-100935167D01*
X154697440Y-100935167D01*
X154697440Y-100250000D01*
X154653162Y-100014683D01*
X154514090Y-99798559D01*
X154301890Y-99653569D01*
X154050000Y-99602560D01*
X152450000Y-99602560D01*
X152214683Y-99646838D01*
X151998559Y-99785910D01*
X151853569Y-99998110D01*
X151802560Y-100250000D01*
X151802560Y-100415000D01*
X151500000Y-100415000D01*
X151180459Y-100478561D01*
X150909566Y-100659566D01*
X150728561Y-100930459D01*
X150665000Y-101250000D01*
X150665000Y-102822766D01*
X150565162Y-103063201D01*
X150564838Y-103435167D01*
X150665000Y-103677578D01*
X150665000Y-112904132D01*
X150461667Y-113107465D01*
X150221057Y-113206883D01*
X149957808Y-113469673D01*
X149815162Y-113813201D01*
X149814838Y-114185167D01*
X143444179Y-114185167D01*
X143521439Y-114069541D01*
X143585000Y-113750000D01*
X143585000Y-109335750D01*
X146415000Y-109335750D01*
X146415000Y-110176309D01*
X146511673Y-110409698D01*
X146690301Y-110588327D01*
X146923690Y-110685000D01*
X147564250Y-110685000D01*
X147723000Y-110526250D01*
X147723000Y-109177000D01*
X147977000Y-109177000D01*
X147977000Y-110526250D01*
X148135750Y-110685000D01*
X148776310Y-110685000D01*
X149009699Y-110588327D01*
X149188327Y-110409698D01*
X149285000Y-110176309D01*
X149285000Y-109335750D01*
X149126250Y-109177000D01*
X147977000Y-109177000D01*
X147723000Y-109177000D01*
X146573750Y-109177000D01*
X146415000Y-109335750D01*
X143585000Y-109335750D01*
X143585000Y-108595868D01*
X144257177Y-107923691D01*
X146415000Y-107923691D01*
X146415000Y-108764250D01*
X146573750Y-108923000D01*
X147723000Y-108923000D01*
X147723000Y-107573750D01*
X147977000Y-107573750D01*
X147977000Y-108923000D01*
X149126250Y-108923000D01*
X149285000Y-108764250D01*
X149285000Y-107923691D01*
X149188327Y-107690302D01*
X149009699Y-107511673D01*
X148776310Y-107415000D01*
X148135750Y-107415000D01*
X147977000Y-107573750D01*
X147723000Y-107573750D01*
X147564250Y-107415000D01*
X146923690Y-107415000D01*
X146690301Y-107511673D01*
X146511673Y-107690302D01*
X146415000Y-107923691D01*
X144257177Y-107923691D01*
X146288333Y-105892535D01*
X146402560Y-105845337D01*
X146402560Y-106050000D01*
X146446838Y-106285317D01*
X146585910Y-106501441D01*
X146798110Y-106646431D01*
X147050000Y-106697440D01*
X148650000Y-106697440D01*
X148885317Y-106653162D01*
X149101441Y-106514090D01*
X149246431Y-106301890D01*
X149297440Y-106050000D01*
X149297440Y-104050000D01*
X149253162Y-103814683D01*
X149114090Y-103598559D01*
X148901890Y-103453569D01*
X148650000Y-103402560D01*
X147050000Y-103402560D01*
X146814683Y-103446838D01*
X146598559Y-103585910D01*
X146453569Y-103798110D01*
X146402560Y-104050000D01*
X146402560Y-104154754D01*
X146186799Y-104065162D01*
X145814833Y-104064838D01*
X145471057Y-104206883D01*
X145207808Y-104469673D01*
X145107222Y-104711910D01*
X143585000Y-106234132D01*
X143585000Y-102177234D01*
X143684838Y-101936799D01*
X143685162Y-101564833D01*
X143543117Y-101221057D01*
X143280327Y-100957808D01*
X142936799Y-100815162D01*
X142564833Y-100814838D01*
X142322422Y-100915000D01*
X142097440Y-100915000D01*
X142097440Y-100850000D01*
X142053162Y-100614683D01*
X141914090Y-100398559D01*
X141701890Y-100253569D01*
X141450000Y-100202560D01*
X139850000Y-100202560D01*
X139614683Y-100246838D01*
X139398559Y-100385910D01*
X139253569Y-100598110D01*
X139202560Y-100850000D01*
X139202560Y-100880080D01*
X139180327Y-100857808D01*
X138836799Y-100715162D01*
X138464833Y-100714838D01*
X138121057Y-100856883D01*
X137857808Y-101119673D01*
X137715162Y-101463201D01*
X137714838Y-101835167D01*
X133026868Y-101835167D01*
X132973923Y-101647540D01*
X132807379Y-101588268D01*
X133033515Y-101494831D01*
X133423461Y-101105564D01*
X133434076Y-101080000D01*
X134680000Y-101080000D01*
X134970839Y-101022148D01*
X135217401Y-100857401D01*
X136814802Y-99260000D01*
X137687537Y-99260000D01*
X137719673Y-99292192D01*
X138063201Y-99434838D01*
X138435167Y-99435162D01*
X138778943Y-99293117D01*
X139042192Y-99030327D01*
X139184838Y-98686799D01*
X139185162Y-98314833D01*
X139043117Y-97971057D01*
X138780327Y-97707808D01*
X138436799Y-97565162D01*
X138064833Y-97564838D01*
X137721057Y-97706883D01*
X137687882Y-97740000D01*
X136500000Y-97740000D01*
X136209161Y-97797852D01*
X135962599Y-97962599D01*
X134365198Y-99560000D01*
X133434547Y-99560000D01*
X133424831Y-99536485D01*
X133193687Y-99304938D01*
X133423461Y-99075564D01*
X133634759Y-98566702D01*
X133635240Y-98015715D01*
X133436924Y-97535750D01*
X151815000Y-97535750D01*
X151815000Y-98376309D01*
X151911673Y-98609698D01*
X152090301Y-98788327D01*
X152323690Y-98885000D01*
X152964250Y-98885000D01*
X153123000Y-98726250D01*
X153123000Y-97377000D01*
X153377000Y-97377000D01*
X153377000Y-98726250D01*
X153535750Y-98885000D01*
X154176310Y-98885000D01*
X154409699Y-98788327D01*
X154588327Y-98609698D01*
X154685000Y-98376309D01*
X154685000Y-97535750D01*
X154526250Y-97377000D01*
X153377000Y-97377000D01*
X153123000Y-97377000D01*
X151973750Y-97377000D01*
X151815000Y-97535750D01*
X133436924Y-97535750D01*
X133424831Y-97506485D01*
X133035564Y-97116539D01*
X132803130Y-97020024D01*
X133033515Y-96924831D01*
X133423461Y-96535564D01*
X133594485Y-96123691D01*
X151815000Y-96123691D01*
X151815000Y-96964250D01*
X151973750Y-97123000D01*
X153123000Y-97123000D01*
X153123000Y-95773750D01*
X153377000Y-95773750D01*
X153377000Y-97123000D01*
X154526250Y-97123000D01*
X154685000Y-96964250D01*
X154685000Y-96123691D01*
X154588327Y-95890302D01*
X154409699Y-95711673D01*
X154176310Y-95615000D01*
X153535750Y-95615000D01*
X153377000Y-95773750D01*
X153123000Y-95773750D01*
X152964250Y-95615000D01*
X152323690Y-95615000D01*
X152090301Y-95711673D01*
X151911673Y-95890302D01*
X151815000Y-96123691D01*
X133594485Y-96123691D01*
X133634759Y-96026702D01*
X133635240Y-95475715D01*
X133624615Y-95450000D01*
X171002560Y-95450000D01*
X171002560Y-97450000D01*
X171046838Y-97685317D01*
X171185910Y-97901441D01*
X171398110Y-98046431D01*
X171650000Y-98097440D01*
X172116572Y-98097440D01*
X174098516Y-100079384D01*
X174063707Y-100114133D01*
X173901890Y-100003569D01*
X173650000Y-99952560D01*
X171650000Y-99952560D01*
X171414683Y-99996838D01*
X171198559Y-100135910D01*
X171053569Y-100348110D01*
X171002560Y-100600000D01*
X171002560Y-102300000D01*
X171046838Y-102535317D01*
X171185910Y-102751441D01*
X171398110Y-102896431D01*
X171650000Y-102947440D01*
X173315089Y-102947440D01*
X173315039Y-103004093D01*
X172561667Y-103757465D01*
X172321057Y-103856883D01*
X172057808Y-104119673D01*
X171915162Y-104463201D01*
X171915151Y-104475698D01*
X171878561Y-104530459D01*
X171815000Y-104850000D01*
X171815000Y-107409146D01*
X171614683Y-107446838D01*
X171398559Y-107585910D01*
X171253569Y-107798110D01*
X171202560Y-108050000D01*
X171202560Y-110050000D01*
X171246838Y-110285317D01*
X171385910Y-110501441D01*
X171598110Y-110646431D01*
X171850000Y-110697440D01*
X173450000Y-110697440D01*
X173685317Y-110653162D01*
X173901441Y-110514090D01*
X174046431Y-110301890D01*
X174097440Y-110050000D01*
X174097440Y-108050000D01*
X174053162Y-107814683D01*
X173914090Y-107598559D01*
X173701890Y-107453569D01*
X173485000Y-107409648D01*
X173485000Y-105337245D01*
X173642192Y-105180327D01*
X173742778Y-104938090D01*
X174350000Y-104330868D01*
X175259566Y-105240434D01*
X175415000Y-105344292D01*
X175415000Y-107409146D01*
X175214683Y-107446838D01*
X174998559Y-107585910D01*
X174853569Y-107798110D01*
X174802560Y-108050000D01*
X174802560Y-109914958D01*
X174664833Y-109914838D01*
X174321057Y-110056883D01*
X174057808Y-110319673D01*
X173915162Y-110663201D01*
X173914838Y-111035167D01*
X174056883Y-111378943D01*
X174319673Y-111642192D01*
X174663201Y-111784838D01*
X174872439Y-111785020D01*
X174815000Y-111923691D01*
X174815000Y-112764250D01*
X174973750Y-112923000D01*
X176123000Y-112923000D01*
X176123000Y-112903000D01*
X176377000Y-112903000D01*
X176377000Y-112923000D01*
X177526250Y-112923000D01*
X177685000Y-112764250D01*
X177685000Y-111923691D01*
X177588327Y-111690302D01*
X177498398Y-111600373D01*
X177740839Y-111552148D01*
X177987401Y-111387401D01*
X178387401Y-110987401D01*
X178552148Y-110740840D01*
X178571770Y-110642192D01*
X178610000Y-110450000D01*
X178610000Y-110035167D01*
X183514838Y-110035167D01*
X183656883Y-110378943D01*
X183690000Y-110412118D01*
X183690000Y-116687537D01*
X183657808Y-116719673D01*
X183515162Y-117063201D01*
X183514838Y-117435167D01*
X183656883Y-117778943D01*
X183919673Y-118042192D01*
X184263201Y-118184838D01*
X184635167Y-118185162D01*
X184978943Y-118043117D01*
X185242192Y-117780327D01*
X185384838Y-117436799D01*
X185385162Y-117064833D01*
X185243117Y-116721057D01*
X185210000Y-116687882D01*
X185210000Y-110412463D01*
X185242192Y-110380327D01*
X185384838Y-110036799D01*
X185385162Y-109664833D01*
X185243117Y-109321057D01*
X184980327Y-109057808D01*
X184636799Y-108915162D01*
X184264833Y-108914838D01*
X183921057Y-109056883D01*
X183657808Y-109319673D01*
X183515162Y-109663201D01*
X183514838Y-110035167D01*
X178610000Y-110035167D01*
X178610000Y-109512923D01*
X178778943Y-109443117D01*
X179042192Y-109180327D01*
X179184838Y-108836799D01*
X179185162Y-108464833D01*
X179043117Y-108121057D01*
X178780327Y-107857808D01*
X178436799Y-107715162D01*
X178064833Y-107714838D01*
X177721057Y-107856883D01*
X177670583Y-107907269D01*
X177653162Y-107814683D01*
X177514090Y-107598559D01*
X177301890Y-107453569D01*
X177085000Y-107409648D01*
X177085000Y-104850000D01*
X177077680Y-104813201D01*
X177021440Y-104530460D01*
X176985152Y-104476152D01*
X176985162Y-104464833D01*
X176972905Y-104435167D01*
X179714838Y-104435167D01*
X179856883Y-104778943D01*
X180119673Y-105042192D01*
X180361910Y-105142778D01*
X180402560Y-105183428D01*
X180402560Y-106650000D01*
X180446838Y-106885317D01*
X180585910Y-107101441D01*
X180798110Y-107246431D01*
X181050000Y-107297440D01*
X183050000Y-107297440D01*
X183285317Y-107253162D01*
X183501441Y-107114090D01*
X183638579Y-106913381D01*
X186912599Y-110187401D01*
X187159161Y-110352148D01*
X187450000Y-110410000D01*
X187887537Y-110410000D01*
X187919673Y-110442192D01*
X188263201Y-110584838D01*
X188635167Y-110585162D01*
X188978943Y-110443117D01*
X189242192Y-110180327D01*
X189384838Y-109836799D01*
X189385162Y-109464833D01*
X189243117Y-109121057D01*
X188980327Y-108857808D01*
X188636799Y-108715162D01*
X188264833Y-108714838D01*
X187921057Y-108856883D01*
X187887882Y-108890000D01*
X187764802Y-108890000D01*
X186159802Y-107285000D01*
X186177002Y-107285000D01*
X186177002Y-107126252D01*
X186335750Y-107285000D01*
X187176309Y-107285000D01*
X187409698Y-107188327D01*
X187588327Y-107009699D01*
X187685000Y-106776310D01*
X187685000Y-106135750D01*
X187526250Y-105977000D01*
X186177000Y-105977000D01*
X186177000Y-105997000D01*
X185923000Y-105997000D01*
X185923000Y-105977000D01*
X185903000Y-105977000D01*
X185903000Y-105723000D01*
X185923000Y-105723000D01*
X185923000Y-104573750D01*
X186177000Y-104573750D01*
X186177000Y-105723000D01*
X187526250Y-105723000D01*
X187685000Y-105564250D01*
X187685000Y-104923690D01*
X187588327Y-104690301D01*
X187409698Y-104511673D01*
X187176309Y-104415000D01*
X186335750Y-104415000D01*
X186177000Y-104573750D01*
X185923000Y-104573750D01*
X185764250Y-104415000D01*
X184923691Y-104415000D01*
X184810000Y-104462092D01*
X184810000Y-102585140D01*
X184835167Y-102585162D01*
X185178943Y-102443117D01*
X185442192Y-102180327D01*
X185584838Y-101836799D01*
X185585162Y-101464833D01*
X185443117Y-101121057D01*
X185180327Y-100857808D01*
X184836799Y-100715162D01*
X184464833Y-100714838D01*
X184121057Y-100856883D01*
X183857808Y-101119673D01*
X183715162Y-101463201D01*
X183715121Y-101510077D01*
X183512599Y-101712599D01*
X183347852Y-101959161D01*
X183290000Y-102250000D01*
X183290000Y-104451161D01*
X183050000Y-104402560D01*
X181983428Y-104402560D01*
X181542535Y-103961667D01*
X181443117Y-103721057D01*
X181180327Y-103457808D01*
X180836799Y-103315162D01*
X180464833Y-103314838D01*
X180121057Y-103456883D01*
X179857808Y-103719673D01*
X179715162Y-104063201D01*
X179714838Y-104435167D01*
X176972905Y-104435167D01*
X176843117Y-104121057D01*
X176580327Y-103857808D01*
X176236799Y-103715162D01*
X176095907Y-103715039D01*
X175230868Y-102850000D01*
X176338333Y-101742535D01*
X176578943Y-101643117D01*
X176842192Y-101380327D01*
X176984838Y-101036799D01*
X176985162Y-100664833D01*
X176885000Y-100422422D01*
X176885000Y-98090854D01*
X177085317Y-98053162D01*
X177301441Y-97914090D01*
X177446431Y-97701890D01*
X177497440Y-97450000D01*
X177497440Y-95450000D01*
X177453162Y-95214683D01*
X177314090Y-94998559D01*
X177101890Y-94853569D01*
X176850000Y-94802560D01*
X175250000Y-94802560D01*
X175014683Y-94846838D01*
X174798559Y-94985910D01*
X174653569Y-95198110D01*
X174602560Y-95450000D01*
X174602560Y-97450000D01*
X174646838Y-97685317D01*
X174785910Y-97901441D01*
X174998110Y-98046431D01*
X175215000Y-98090352D01*
X175215000Y-98834132D01*
X173886229Y-97505361D01*
X173897440Y-97450000D01*
X173897440Y-95450000D01*
X173853162Y-95214683D01*
X173714090Y-94998559D01*
X173501890Y-94853569D01*
X173250000Y-94802560D01*
X171650000Y-94802560D01*
X171414683Y-94846838D01*
X171198559Y-94985910D01*
X171053569Y-95198110D01*
X171002560Y-95450000D01*
X133624615Y-95450000D01*
X133424831Y-94966485D01*
X133035564Y-94576539D01*
X132526702Y-94365241D01*
X131975715Y-94364760D01*
X131466485Y-94575169D01*
X131076539Y-94964436D01*
X130865241Y-95473298D01*
X130864760Y-96024285D01*
X119377000Y-96024285D01*
X119377000Y-92612815D01*
X127444630Y-92612815D01*
X127768980Y-93397800D01*
X128369041Y-93998909D01*
X129153459Y-94324628D01*
X130002815Y-94325370D01*
X130787800Y-94001020D01*
X131388909Y-93400959D01*
X131665128Y-92735750D01*
X171015000Y-92735750D01*
X171015000Y-93576309D01*
X171111673Y-93809698D01*
X171290301Y-93988327D01*
X171523690Y-94085000D01*
X172164250Y-94085000D01*
X172323000Y-93926250D01*
X172323000Y-92577000D01*
X172577000Y-92577000D01*
X172577000Y-93926250D01*
X172735750Y-94085000D01*
X173376310Y-94085000D01*
X173609699Y-93988327D01*
X173788327Y-93809698D01*
X173885000Y-93576309D01*
X173885000Y-92735750D01*
X174615000Y-92735750D01*
X174615000Y-93576309D01*
X174711673Y-93809698D01*
X174890301Y-93988327D01*
X175123690Y-94085000D01*
X175764250Y-94085000D01*
X175923000Y-93926250D01*
X175923000Y-92577000D01*
X176177000Y-92577000D01*
X176177000Y-93926250D01*
X176335750Y-94085000D01*
X176976310Y-94085000D01*
X177209699Y-93988327D01*
X177388327Y-93809698D01*
X177485000Y-93576309D01*
X177485000Y-92735750D01*
X177326250Y-92577000D01*
X176177000Y-92577000D01*
X175923000Y-92577000D01*
X174773750Y-92577000D01*
X174615000Y-92735750D01*
X173885000Y-92735750D01*
X173726250Y-92577000D01*
X172577000Y-92577000D01*
X172323000Y-92577000D01*
X171173750Y-92577000D01*
X171015000Y-92735750D01*
X131665128Y-92735750D01*
X131714628Y-92616541D01*
X131715370Y-91767185D01*
X131532122Y-91323691D01*
X171015000Y-91323691D01*
X171015000Y-92164250D01*
X171173750Y-92323000D01*
X172323000Y-92323000D01*
X172323000Y-90973750D01*
X172577000Y-90973750D01*
X172577000Y-92323000D01*
X173726250Y-92323000D01*
X173885000Y-92164250D01*
X173885000Y-91323691D01*
X174615000Y-91323691D01*
X174615000Y-92164250D01*
X174773750Y-92323000D01*
X175923000Y-92323000D01*
X175923000Y-90973750D01*
X176177000Y-90973750D01*
X176177000Y-92323000D01*
X177326250Y-92323000D01*
X177485000Y-92164250D01*
X177485000Y-91323691D01*
X177388327Y-91090302D01*
X177209699Y-90911673D01*
X176976310Y-90815000D01*
X176335750Y-90815000D01*
X176177000Y-90973750D01*
X175923000Y-90973750D01*
X175764250Y-90815000D01*
X175123690Y-90815000D01*
X174890301Y-90911673D01*
X174711673Y-91090302D01*
X174615000Y-91323691D01*
X173885000Y-91323691D01*
X173788327Y-91090302D01*
X173609699Y-90911673D01*
X173376310Y-90815000D01*
X172735750Y-90815000D01*
X172577000Y-90973750D01*
X172323000Y-90973750D01*
X172164250Y-90815000D01*
X171523690Y-90815000D01*
X171290301Y-90911673D01*
X171111673Y-91090302D01*
X171015000Y-91323691D01*
X131532122Y-91323691D01*
X131391020Y-90982200D01*
X130790959Y-90381091D01*
X130006541Y-90055372D01*
X129157185Y-90054630D01*
X128372200Y-90378980D01*
X127771091Y-90979041D01*
X127445372Y-91763459D01*
X127444630Y-92612815D01*
X119377000Y-92612815D01*
X119377000Y-87000000D01*
X137352560Y-87000000D01*
X137352560Y-88700000D01*
X137396838Y-88935317D01*
X137535910Y-89151441D01*
X137748110Y-89296431D01*
X138000000Y-89347440D01*
X139700000Y-89347440D01*
X139935317Y-89303162D01*
X140151441Y-89164090D01*
X140296431Y-88951890D01*
X140310086Y-88884459D01*
X140339946Y-88929147D01*
X140821715Y-89251054D01*
X141390000Y-89364093D01*
X141958285Y-89251054D01*
X142440054Y-88929147D01*
X142660000Y-88599974D01*
X142879946Y-88929147D01*
X143361715Y-89251054D01*
X143930000Y-89364093D01*
X144498285Y-89251054D01*
X144980054Y-88929147D01*
X145207702Y-88588447D01*
X145274817Y-88731358D01*
X145703076Y-89121645D01*
X146113110Y-89291476D01*
X146343000Y-89170155D01*
X146343000Y-87977000D01*
X146597000Y-87977000D01*
X146597000Y-89170155D01*
X146826890Y-89291476D01*
X147236924Y-89121645D01*
X147665183Y-88731358D01*
X147911486Y-88206892D01*
X147790819Y-87977000D01*
X146597000Y-87977000D01*
X146343000Y-87977000D01*
X146323000Y-87977000D01*
X146323000Y-87723000D01*
X146343000Y-87723000D01*
X146343000Y-86529845D01*
X146597000Y-86529845D01*
X146597000Y-87723000D01*
X147790819Y-87723000D01*
X147911486Y-87493108D01*
X147665183Y-86968642D01*
X147236924Y-86578355D01*
X146826890Y-86408524D01*
X146597000Y-86529845D01*
X146343000Y-86529845D01*
X146113110Y-86408524D01*
X145703076Y-86578355D01*
X145274817Y-86968642D01*
X145207702Y-87111553D01*
X144980054Y-86770853D01*
X144498285Y-86448946D01*
X143930000Y-86335907D01*
X143361715Y-86448946D01*
X142879946Y-86770853D01*
X142660000Y-87100026D01*
X142440054Y-86770853D01*
X141958285Y-86448946D01*
X141390000Y-86335907D01*
X140821715Y-86448946D01*
X140339946Y-86770853D01*
X140312150Y-86812452D01*
X140303162Y-86764683D01*
X140164090Y-86548559D01*
X139951890Y-86403569D01*
X139700000Y-86352560D01*
X138000000Y-86352560D01*
X137764683Y-86396838D01*
X137548559Y-86535910D01*
X137403569Y-86748110D01*
X137352560Y-87000000D01*
X119377000Y-87000000D01*
X119377000Y-82377000D01*
X194123000Y-82377000D01*
X194123000Y-123123000D01*
X194123000Y-123123000D01*
G37*
X194123000Y-123123000D02*
X119377000Y-123123000D01*
X119377000Y-116765000D01*
X128140907Y-116765000D01*
X128253946Y-117333285D01*
X128575853Y-117815054D01*
X128617452Y-117842850D01*
X128569683Y-117851838D01*
X128353559Y-117990910D01*
X128208569Y-118203110D01*
X128157560Y-118455000D01*
X128157560Y-120155000D01*
X128201838Y-120390317D01*
X128340910Y-120606441D01*
X128553110Y-120751431D01*
X128805000Y-120802440D01*
X130505000Y-120802440D01*
X130740317Y-120758162D01*
X130956441Y-120619090D01*
X131101431Y-120406890D01*
X131152440Y-120155000D01*
X131152440Y-119396892D01*
X157228514Y-119396892D01*
X157474817Y-119921358D01*
X157903076Y-120311645D01*
X158313110Y-120481476D01*
X158543000Y-120360155D01*
X158543000Y-119167000D01*
X157349181Y-119167000D01*
X157228514Y-119396892D01*
X131152440Y-119396892D01*
X131152440Y-118455000D01*
X131108162Y-118219683D01*
X130969090Y-118003559D01*
X130756890Y-117858569D01*
X130689459Y-117844914D01*
X130734147Y-117815054D01*
X131056054Y-117333285D01*
X131169093Y-116765000D01*
X131056054Y-116196715D01*
X130734147Y-115714946D01*
X130393447Y-115487298D01*
X130536358Y-115420183D01*
X130926645Y-114991924D01*
X131096476Y-114581890D01*
X130975155Y-114352000D01*
X129782000Y-114352000D01*
X129782000Y-114372000D01*
X129528000Y-114372000D01*
X129528000Y-114352000D01*
X128334845Y-114352000D01*
X128213524Y-114581890D01*
X128383355Y-114991924D01*
X128773642Y-115420183D01*
X128916553Y-115487298D01*
X128575853Y-115714946D01*
X128253946Y-116196715D01*
X128140907Y-116765000D01*
X119377000Y-116765000D01*
X119377000Y-113868110D01*
X128213524Y-113868110D01*
X128334845Y-114098000D01*
X129528000Y-114098000D01*
X129528000Y-112904181D01*
X129782000Y-112904181D01*
X129782000Y-114098000D01*
X130975155Y-114098000D01*
X131096476Y-113868110D01*
X130926645Y-113458076D01*
X130536358Y-113029817D01*
X130011892Y-112783514D01*
X129782000Y-112904181D01*
X129528000Y-112904181D01*
X129298108Y-112783514D01*
X128773642Y-113029817D01*
X128383355Y-113458076D01*
X128213524Y-113868110D01*
X119377000Y-113868110D01*
X119377000Y-106332815D01*
X127444630Y-106332815D01*
X127768980Y-107117800D01*
X128369041Y-107718909D01*
X129153459Y-108044628D01*
X130002815Y-108045370D01*
X130787800Y-107721020D01*
X131388909Y-107120959D01*
X131714628Y-106336541D01*
X131715370Y-105487185D01*
X131391020Y-104702200D01*
X130790959Y-104101091D01*
X130141754Y-103831517D01*
X131458088Y-103831517D01*
X131526077Y-104072460D01*
X132045171Y-104257201D01*
X132595448Y-104229230D01*
X132973923Y-104072460D01*
X133041912Y-103831517D01*
X132250000Y-103039605D01*
X131458088Y-103831517D01*
X130141754Y-103831517D01*
X130006541Y-103775372D01*
X129157185Y-103774630D01*
X128372200Y-104098980D01*
X127771091Y-104699041D01*
X127445372Y-105483459D01*
X127444630Y-106332815D01*
X119377000Y-106332815D01*
X119377000Y-102655171D01*
X130852799Y-102655171D01*
X130880770Y-103205448D01*
X131037540Y-103583923D01*
X131278483Y-103651912D01*
X132070395Y-102860000D01*
X132429605Y-102860000D01*
X133221517Y-103651912D01*
X133462460Y-103583923D01*
X133647201Y-103064829D01*
X133619230Y-102514552D01*
X133462460Y-102136077D01*
X133221517Y-102068088D01*
X132429605Y-102860000D01*
X132070395Y-102860000D01*
X131278483Y-102068088D01*
X131037540Y-102136077D01*
X130852799Y-102655171D01*
X119377000Y-102655171D01*
X119377000Y-96024285D01*
X130864760Y-96024285D01*
X131075169Y-96533515D01*
X131464436Y-96923461D01*
X131696870Y-97019976D01*
X131466485Y-97115169D01*
X131076539Y-97504436D01*
X130865241Y-98013298D01*
X130864760Y-98564285D01*
X131075169Y-99073515D01*
X131306313Y-99305062D01*
X131076539Y-99534436D01*
X130865241Y-100043298D01*
X130864760Y-100594285D01*
X131075169Y-101103515D01*
X131464436Y-101493461D01*
X131680979Y-101583377D01*
X131526077Y-101647540D01*
X131458088Y-101888483D01*
X132250000Y-102680395D01*
X133041912Y-101888483D01*
X133026868Y-101835167D01*
X137714838Y-101835167D01*
X137815000Y-102077578D01*
X137815000Y-115050000D01*
X137878561Y-115369541D01*
X137908724Y-115414683D01*
X138059566Y-115640434D01*
X138157465Y-115738333D01*
X138256883Y-115978943D01*
X138519673Y-116242192D01*
X138863201Y-116384838D01*
X139235167Y-116385162D01*
X139578943Y-116243117D01*
X139842192Y-115980327D01*
X139984838Y-115636799D01*
X139985162Y-115264833D01*
X139843117Y-114921057D01*
X139580327Y-114657808D01*
X139485000Y-114618225D01*
X139485000Y-107383026D01*
X139490301Y-107388327D01*
X139723690Y-107485000D01*
X140364250Y-107485000D01*
X140523000Y-107326250D01*
X140523000Y-105977000D01*
X140503000Y-105977000D01*
X140503000Y-105723000D01*
X140523000Y-105723000D01*
X140523000Y-104373750D01*
X140364250Y-104215000D01*
X139723690Y-104215000D01*
X139490301Y-104311673D01*
X139485000Y-104316974D01*
X139485000Y-103369146D01*
X139598110Y-103446431D01*
X139850000Y-103497440D01*
X141450000Y-103497440D01*
X141685317Y-103453162D01*
X141901441Y-103314090D01*
X141915000Y-103294246D01*
X141915000Y-104416975D01*
X141809699Y-104311673D01*
X141576310Y-104215000D01*
X140935750Y-104215000D01*
X140777000Y-104373750D01*
X140777000Y-105723000D01*
X140797000Y-105723000D01*
X140797000Y-105977000D01*
X140777000Y-105977000D01*
X140777000Y-107326250D01*
X140935750Y-107485000D01*
X141576310Y-107485000D01*
X141809699Y-107388327D01*
X141915000Y-107283025D01*
X141915000Y-113262842D01*
X141707808Y-113469673D01*
X141565162Y-113813201D01*
X141564838Y-114185167D01*
X141706883Y-114528943D01*
X141969673Y-114792192D01*
X142313201Y-114934838D01*
X142685167Y-114935162D01*
X143028943Y-114793117D01*
X143292192Y-114530327D01*
X143421292Y-114219421D01*
X143424246Y-114215000D01*
X143444179Y-114185167D01*
X149814838Y-114185167D01*
X149956883Y-114528943D01*
X150219673Y-114792192D01*
X150513414Y-114914164D01*
X150457808Y-114969673D01*
X150315162Y-115313201D01*
X150314838Y-115685167D01*
X150456883Y-116028943D01*
X150473870Y-116045960D01*
X150478561Y-116069541D01*
X150627332Y-116292192D01*
X150659566Y-116340434D01*
X152607466Y-118288335D01*
X152706883Y-118528943D01*
X152969673Y-118792192D01*
X153313201Y-118934838D01*
X153685167Y-118935162D01*
X154028943Y-118793117D01*
X154292192Y-118530327D01*
X154434838Y-118186799D01*
X154435162Y-117814833D01*
X154293117Y-117471057D01*
X154030327Y-117207808D01*
X153788091Y-117107222D01*
X152184997Y-115504129D01*
X152185162Y-115314833D01*
X152043117Y-114971057D01*
X151780327Y-114707808D01*
X151486586Y-114585836D01*
X151542192Y-114530327D01*
X151642778Y-114288090D01*
X152090434Y-113840434D01*
X152107540Y-113814833D01*
X152271439Y-113569541D01*
X152335000Y-113250000D01*
X152335000Y-109635000D01*
X152964250Y-109635000D01*
X153123000Y-109476250D01*
X153123000Y-108127000D01*
X153377000Y-108127000D01*
X153377000Y-109476250D01*
X153535750Y-109635000D01*
X154176310Y-109635000D01*
X154409699Y-109538327D01*
X154588327Y-109359698D01*
X154685000Y-109126309D01*
X154685000Y-108285750D01*
X154526250Y-108127000D01*
X153377000Y-108127000D01*
X153123000Y-108127000D01*
X153103000Y-108127000D01*
X153103000Y-107873000D01*
X153123000Y-107873000D01*
X153123000Y-106523750D01*
X153377000Y-106523750D01*
X153377000Y-107873000D01*
X154526250Y-107873000D01*
X154685000Y-107714250D01*
X154685000Y-106873691D01*
X154588327Y-106640302D01*
X154409699Y-106461673D01*
X154176310Y-106365000D01*
X153535750Y-106365000D01*
X153377000Y-106523750D01*
X153123000Y-106523750D01*
X152964250Y-106365000D01*
X152335000Y-106365000D01*
X152335000Y-105624152D01*
X152450000Y-105647440D01*
X154050000Y-105647440D01*
X154285317Y-105603162D01*
X154501441Y-105464090D01*
X154646431Y-105251890D01*
X154697440Y-105000000D01*
X154697440Y-103000000D01*
X154653162Y-102764683D01*
X154562810Y-102624273D01*
X154646431Y-102501890D01*
X154697440Y-102250000D01*
X154697440Y-100935167D01*
X155564838Y-100935167D01*
X155706883Y-101278943D01*
X155740000Y-101312118D01*
X155740000Y-110500000D01*
X155797852Y-110790839D01*
X155962599Y-111037401D01*
X156064878Y-111139680D01*
X156064838Y-111185167D01*
X156206883Y-111528943D01*
X156469673Y-111792192D01*
X156813201Y-111934838D01*
X157185167Y-111935162D01*
X157490000Y-111809208D01*
X157490000Y-115615331D01*
X157298039Y-115902622D01*
X157185000Y-116470907D01*
X157185000Y-116529093D01*
X157298039Y-117097378D01*
X157619946Y-117579147D01*
X157903101Y-117768345D01*
X157903076Y-117768355D01*
X157474817Y-118158642D01*
X157228514Y-118683108D01*
X157349181Y-118913000D01*
X158543000Y-118913000D01*
X158543000Y-118893000D01*
X158797000Y-118893000D01*
X158797000Y-118913000D01*
X158817000Y-118913000D01*
X158817000Y-119167000D01*
X158797000Y-119167000D01*
X158797000Y-120360155D01*
X159026890Y-120481476D01*
X159436924Y-120311645D01*
X159865183Y-119921358D01*
X159932298Y-119778447D01*
X160159946Y-120119147D01*
X160641715Y-120441054D01*
X161210000Y-120554093D01*
X161778285Y-120441054D01*
X162260054Y-120119147D01*
X162480000Y-119789974D01*
X162699946Y-120119147D01*
X163181715Y-120441054D01*
X163750000Y-120554093D01*
X164318285Y-120441054D01*
X164800054Y-120119147D01*
X165121961Y-119637378D01*
X165235000Y-119069093D01*
X165235000Y-119010907D01*
X165121961Y-118442622D01*
X164800054Y-117960853D01*
X164798821Y-117960029D01*
X164835317Y-117953162D01*
X165051441Y-117814090D01*
X165196431Y-117601890D01*
X165247440Y-117350000D01*
X165247440Y-115650000D01*
X165203162Y-115414683D01*
X165064090Y-115198559D01*
X164851890Y-115053569D01*
X164600000Y-115002560D01*
X164510000Y-115002560D01*
X164510000Y-109135000D01*
X164964250Y-109135000D01*
X165123000Y-108976250D01*
X165123000Y-107627000D01*
X165103000Y-107627000D01*
X165103000Y-107373000D01*
X165123000Y-107373000D01*
X165123000Y-106023750D01*
X164964250Y-105865000D01*
X164323690Y-105865000D01*
X164090301Y-105961673D01*
X163972138Y-106079836D01*
X163936799Y-106065162D01*
X163564833Y-106064838D01*
X163221057Y-106206883D01*
X162957808Y-106469673D01*
X162909885Y-106585083D01*
X161435122Y-105110320D01*
X161435162Y-105064833D01*
X161293117Y-104721057D01*
X161030327Y-104457808D01*
X160686799Y-104315162D01*
X160631557Y-104315114D01*
X160656375Y-104255346D01*
X160680459Y-104271439D01*
X161000000Y-104335000D01*
X163802560Y-104335000D01*
X163802560Y-104500000D01*
X163846838Y-104735317D01*
X163985910Y-104951441D01*
X164198110Y-105096431D01*
X164450000Y-105147440D01*
X165963230Y-105147440D01*
X165915162Y-105263201D01*
X165914838Y-105635167D01*
X166009803Y-105865000D01*
X165535750Y-105865000D01*
X165377000Y-106023750D01*
X165377000Y-107373000D01*
X165397000Y-107373000D01*
X165397000Y-107627000D01*
X165377000Y-107627000D01*
X165377000Y-108976250D01*
X165535750Y-109135000D01*
X166090000Y-109135000D01*
X166090000Y-113687537D01*
X166057808Y-113719673D01*
X165915162Y-114063201D01*
X165914838Y-114435167D01*
X166056883Y-114778943D01*
X166319673Y-115042192D01*
X166663201Y-115184838D01*
X167035167Y-115185162D01*
X167378943Y-115043117D01*
X167642192Y-114780327D01*
X167784838Y-114436799D01*
X167785162Y-114064833D01*
X167643117Y-113721057D01*
X167610000Y-113687882D01*
X167610000Y-113335750D01*
X171215000Y-113335750D01*
X171215000Y-114176309D01*
X171311673Y-114409698D01*
X171490301Y-114588327D01*
X171723690Y-114685000D01*
X172364250Y-114685000D01*
X172523000Y-114526250D01*
X172523000Y-113177000D01*
X172777000Y-113177000D01*
X172777000Y-114526250D01*
X172935750Y-114685000D01*
X173576310Y-114685000D01*
X173809699Y-114588327D01*
X173988327Y-114409698D01*
X174085000Y-114176309D01*
X174085000Y-113335750D01*
X174815000Y-113335750D01*
X174815000Y-114176309D01*
X174911673Y-114409698D01*
X175090301Y-114588327D01*
X175323690Y-114685000D01*
X175964250Y-114685000D01*
X176123000Y-114526250D01*
X176123000Y-113177000D01*
X176377000Y-113177000D01*
X176377000Y-114526250D01*
X176535750Y-114685000D01*
X177176310Y-114685000D01*
X177409699Y-114588327D01*
X177588327Y-114409698D01*
X177685000Y-114176309D01*
X177685000Y-113335750D01*
X177526250Y-113177000D01*
X176377000Y-113177000D01*
X176123000Y-113177000D01*
X174973750Y-113177000D01*
X174815000Y-113335750D01*
X174085000Y-113335750D01*
X173926250Y-113177000D01*
X172777000Y-113177000D01*
X172523000Y-113177000D01*
X171373750Y-113177000D01*
X171215000Y-113335750D01*
X167610000Y-113335750D01*
X167610000Y-111923691D01*
X171215000Y-111923691D01*
X171215000Y-112764250D01*
X171373750Y-112923000D01*
X172523000Y-112923000D01*
X172523000Y-111573750D01*
X172777000Y-111573750D01*
X172777000Y-112923000D01*
X173926250Y-112923000D01*
X174085000Y-112764250D01*
X174085000Y-111923691D01*
X173988327Y-111690302D01*
X173809699Y-111511673D01*
X173576310Y-111415000D01*
X172935750Y-111415000D01*
X172777000Y-111573750D01*
X172523000Y-111573750D01*
X172364250Y-111415000D01*
X171723690Y-111415000D01*
X171490301Y-111511673D01*
X171311673Y-111690302D01*
X171215000Y-111923691D01*
X167610000Y-111923691D01*
X167610000Y-106012463D01*
X167642192Y-105980327D01*
X167784838Y-105636799D01*
X167785162Y-105264833D01*
X167643117Y-104921057D01*
X167380327Y-104657808D01*
X167036799Y-104515162D01*
X166694430Y-104514864D01*
X166697440Y-104500000D01*
X166697440Y-102500000D01*
X166653162Y-102264683D01*
X166514090Y-102048559D01*
X166301890Y-101903569D01*
X166050000Y-101852560D01*
X165366008Y-101852560D01*
X165414511Y-101735750D01*
X167015000Y-101735750D01*
X167015000Y-102426310D01*
X167111673Y-102659699D01*
X167290302Y-102838327D01*
X167523691Y-102935000D01*
X168364250Y-102935000D01*
X168523000Y-102776250D01*
X168523000Y-101577000D01*
X168777000Y-101577000D01*
X168777000Y-102776250D01*
X168935750Y-102935000D01*
X169776309Y-102935000D01*
X170009698Y-102838327D01*
X170188327Y-102659699D01*
X170285000Y-102426310D01*
X170285000Y-101735750D01*
X170126250Y-101577000D01*
X168777000Y-101577000D01*
X168523000Y-101577000D01*
X167173750Y-101577000D01*
X167015000Y-101735750D01*
X165414511Y-101735750D01*
X165434838Y-101686799D01*
X165435162Y-101314833D01*
X165293117Y-100971057D01*
X165030327Y-100707808D01*
X164686799Y-100565162D01*
X164314833Y-100564838D01*
X163971057Y-100706883D01*
X163937882Y-100740000D01*
X161812463Y-100740000D01*
X161780327Y-100707808D01*
X161436799Y-100565162D01*
X161064833Y-100564838D01*
X160721057Y-100706883D01*
X160685007Y-100742870D01*
X160685162Y-100564833D01*
X160647503Y-100473690D01*
X167015000Y-100473690D01*
X167015000Y-101164250D01*
X167173750Y-101323000D01*
X168523000Y-101323000D01*
X168523000Y-100123750D01*
X168777000Y-100123750D01*
X168777000Y-101323000D01*
X170126250Y-101323000D01*
X170285000Y-101164250D01*
X170285000Y-100473690D01*
X170188327Y-100240301D01*
X170009698Y-100061673D01*
X169776309Y-99965000D01*
X168935750Y-99965000D01*
X168777000Y-100123750D01*
X168523000Y-100123750D01*
X168364250Y-99965000D01*
X167523691Y-99965000D01*
X167290302Y-100061673D01*
X167111673Y-100240301D01*
X167015000Y-100473690D01*
X160647503Y-100473690D01*
X160543117Y-100221057D01*
X160280327Y-99957808D01*
X159936799Y-99815162D01*
X159564833Y-99814838D01*
X159221057Y-99956883D01*
X159185007Y-99992870D01*
X159185162Y-99814833D01*
X159043117Y-99471057D01*
X158780327Y-99207808D01*
X158436799Y-99065162D01*
X158064833Y-99064838D01*
X157721057Y-99206883D01*
X157457808Y-99469673D01*
X157315162Y-99813201D01*
X157314838Y-100185167D01*
X157456883Y-100528943D01*
X157490000Y-100562118D01*
X157490000Y-110191063D01*
X157260000Y-110095558D01*
X157260000Y-101312463D01*
X157292192Y-101280327D01*
X157434838Y-100936799D01*
X157435162Y-100564833D01*
X157293117Y-100221057D01*
X157030327Y-99957808D01*
X156686799Y-99815162D01*
X156314833Y-99814838D01*
X155971057Y-99956883D01*
X155707808Y-100219673D01*
X155565162Y-100563201D01*
X155564838Y-100935167D01*
X154697440Y-100935167D01*
X154697440Y-100250000D01*
X154653162Y-100014683D01*
X154514090Y-99798559D01*
X154301890Y-99653569D01*
X154050000Y-99602560D01*
X152450000Y-99602560D01*
X152214683Y-99646838D01*
X151998559Y-99785910D01*
X151853569Y-99998110D01*
X151802560Y-100250000D01*
X151802560Y-100415000D01*
X151500000Y-100415000D01*
X151180459Y-100478561D01*
X150909566Y-100659566D01*
X150728561Y-100930459D01*
X150665000Y-101250000D01*
X150665000Y-102822766D01*
X150565162Y-103063201D01*
X150564838Y-103435167D01*
X150665000Y-103677578D01*
X150665000Y-112904132D01*
X150461667Y-113107465D01*
X150221057Y-113206883D01*
X149957808Y-113469673D01*
X149815162Y-113813201D01*
X149814838Y-114185167D01*
X143444179Y-114185167D01*
X143521439Y-114069541D01*
X143585000Y-113750000D01*
X143585000Y-109335750D01*
X146415000Y-109335750D01*
X146415000Y-110176309D01*
X146511673Y-110409698D01*
X146690301Y-110588327D01*
X146923690Y-110685000D01*
X147564250Y-110685000D01*
X147723000Y-110526250D01*
X147723000Y-109177000D01*
X147977000Y-109177000D01*
X147977000Y-110526250D01*
X148135750Y-110685000D01*
X148776310Y-110685000D01*
X149009699Y-110588327D01*
X149188327Y-110409698D01*
X149285000Y-110176309D01*
X149285000Y-109335750D01*
X149126250Y-109177000D01*
X147977000Y-109177000D01*
X147723000Y-109177000D01*
X146573750Y-109177000D01*
X146415000Y-109335750D01*
X143585000Y-109335750D01*
X143585000Y-108595868D01*
X144257177Y-107923691D01*
X146415000Y-107923691D01*
X146415000Y-108764250D01*
X146573750Y-108923000D01*
X147723000Y-108923000D01*
X147723000Y-107573750D01*
X147977000Y-107573750D01*
X147977000Y-108923000D01*
X149126250Y-108923000D01*
X149285000Y-108764250D01*
X149285000Y-107923691D01*
X149188327Y-107690302D01*
X149009699Y-107511673D01*
X148776310Y-107415000D01*
X148135750Y-107415000D01*
X147977000Y-107573750D01*
X147723000Y-107573750D01*
X147564250Y-107415000D01*
X146923690Y-107415000D01*
X146690301Y-107511673D01*
X146511673Y-107690302D01*
X146415000Y-107923691D01*
X144257177Y-107923691D01*
X146288333Y-105892535D01*
X146402560Y-105845337D01*
X146402560Y-106050000D01*
X146446838Y-106285317D01*
X146585910Y-106501441D01*
X146798110Y-106646431D01*
X147050000Y-106697440D01*
X148650000Y-106697440D01*
X148885317Y-106653162D01*
X149101441Y-106514090D01*
X149246431Y-106301890D01*
X149297440Y-106050000D01*
X149297440Y-104050000D01*
X149253162Y-103814683D01*
X149114090Y-103598559D01*
X148901890Y-103453569D01*
X148650000Y-103402560D01*
X147050000Y-103402560D01*
X146814683Y-103446838D01*
X146598559Y-103585910D01*
X146453569Y-103798110D01*
X146402560Y-104050000D01*
X146402560Y-104154754D01*
X146186799Y-104065162D01*
X145814833Y-104064838D01*
X145471057Y-104206883D01*
X145207808Y-104469673D01*
X145107222Y-104711910D01*
X143585000Y-106234132D01*
X143585000Y-102177234D01*
X143684838Y-101936799D01*
X143685162Y-101564833D01*
X143543117Y-101221057D01*
X143280327Y-100957808D01*
X142936799Y-100815162D01*
X142564833Y-100814838D01*
X142322422Y-100915000D01*
X142097440Y-100915000D01*
X142097440Y-100850000D01*
X142053162Y-100614683D01*
X141914090Y-100398559D01*
X141701890Y-100253569D01*
X141450000Y-100202560D01*
X139850000Y-100202560D01*
X139614683Y-100246838D01*
X139398559Y-100385910D01*
X139253569Y-100598110D01*
X139202560Y-100850000D01*
X139202560Y-100880080D01*
X139180327Y-100857808D01*
X138836799Y-100715162D01*
X138464833Y-100714838D01*
X138121057Y-100856883D01*
X137857808Y-101119673D01*
X137715162Y-101463201D01*
X137714838Y-101835167D01*
X133026868Y-101835167D01*
X132973923Y-101647540D01*
X132807379Y-101588268D01*
X133033515Y-101494831D01*
X133423461Y-101105564D01*
X133434076Y-101080000D01*
X134680000Y-101080000D01*
X134970839Y-101022148D01*
X135217401Y-100857401D01*
X136814802Y-99260000D01*
X137687537Y-99260000D01*
X137719673Y-99292192D01*
X138063201Y-99434838D01*
X138435167Y-99435162D01*
X138778943Y-99293117D01*
X139042192Y-99030327D01*
X139184838Y-98686799D01*
X139185162Y-98314833D01*
X139043117Y-97971057D01*
X138780327Y-97707808D01*
X138436799Y-97565162D01*
X138064833Y-97564838D01*
X137721057Y-97706883D01*
X137687882Y-97740000D01*
X136500000Y-97740000D01*
X136209161Y-97797852D01*
X135962599Y-97962599D01*
X134365198Y-99560000D01*
X133434547Y-99560000D01*
X133424831Y-99536485D01*
X133193687Y-99304938D01*
X133423461Y-99075564D01*
X133634759Y-98566702D01*
X133635240Y-98015715D01*
X133436924Y-97535750D01*
X151815000Y-97535750D01*
X151815000Y-98376309D01*
X151911673Y-98609698D01*
X152090301Y-98788327D01*
X152323690Y-98885000D01*
X152964250Y-98885000D01*
X153123000Y-98726250D01*
X153123000Y-97377000D01*
X153377000Y-97377000D01*
X153377000Y-98726250D01*
X153535750Y-98885000D01*
X154176310Y-98885000D01*
X154409699Y-98788327D01*
X154588327Y-98609698D01*
X154685000Y-98376309D01*
X154685000Y-97535750D01*
X154526250Y-97377000D01*
X153377000Y-97377000D01*
X153123000Y-97377000D01*
X151973750Y-97377000D01*
X151815000Y-97535750D01*
X133436924Y-97535750D01*
X133424831Y-97506485D01*
X133035564Y-97116539D01*
X132803130Y-97020024D01*
X133033515Y-96924831D01*
X133423461Y-96535564D01*
X133594485Y-96123691D01*
X151815000Y-96123691D01*
X151815000Y-96964250D01*
X151973750Y-97123000D01*
X153123000Y-97123000D01*
X153123000Y-95773750D01*
X153377000Y-95773750D01*
X153377000Y-97123000D01*
X154526250Y-97123000D01*
X154685000Y-96964250D01*
X154685000Y-96123691D01*
X154588327Y-95890302D01*
X154409699Y-95711673D01*
X154176310Y-95615000D01*
X153535750Y-95615000D01*
X153377000Y-95773750D01*
X153123000Y-95773750D01*
X152964250Y-95615000D01*
X152323690Y-95615000D01*
X152090301Y-95711673D01*
X151911673Y-95890302D01*
X151815000Y-96123691D01*
X133594485Y-96123691D01*
X133634759Y-96026702D01*
X133635240Y-95475715D01*
X133624615Y-95450000D01*
X171002560Y-95450000D01*
X171002560Y-97450000D01*
X171046838Y-97685317D01*
X171185910Y-97901441D01*
X171398110Y-98046431D01*
X171650000Y-98097440D01*
X172116572Y-98097440D01*
X174098516Y-100079384D01*
X174063707Y-100114133D01*
X173901890Y-100003569D01*
X173650000Y-99952560D01*
X171650000Y-99952560D01*
X171414683Y-99996838D01*
X171198559Y-100135910D01*
X171053569Y-100348110D01*
X171002560Y-100600000D01*
X171002560Y-102300000D01*
X171046838Y-102535317D01*
X171185910Y-102751441D01*
X171398110Y-102896431D01*
X171650000Y-102947440D01*
X173315089Y-102947440D01*
X173315039Y-103004093D01*
X172561667Y-103757465D01*
X172321057Y-103856883D01*
X172057808Y-104119673D01*
X171915162Y-104463201D01*
X171915151Y-104475698D01*
X171878561Y-104530459D01*
X171815000Y-104850000D01*
X171815000Y-107409146D01*
X171614683Y-107446838D01*
X171398559Y-107585910D01*
X171253569Y-107798110D01*
X171202560Y-108050000D01*
X171202560Y-110050000D01*
X171246838Y-110285317D01*
X171385910Y-110501441D01*
X171598110Y-110646431D01*
X171850000Y-110697440D01*
X173450000Y-110697440D01*
X173685317Y-110653162D01*
X173901441Y-110514090D01*
X174046431Y-110301890D01*
X174097440Y-110050000D01*
X174097440Y-108050000D01*
X174053162Y-107814683D01*
X173914090Y-107598559D01*
X173701890Y-107453569D01*
X173485000Y-107409648D01*
X173485000Y-105337245D01*
X173642192Y-105180327D01*
X173742778Y-104938090D01*
X174350000Y-104330868D01*
X175259566Y-105240434D01*
X175415000Y-105344292D01*
X175415000Y-107409146D01*
X175214683Y-107446838D01*
X174998559Y-107585910D01*
X174853569Y-107798110D01*
X174802560Y-108050000D01*
X174802560Y-109914958D01*
X174664833Y-109914838D01*
X174321057Y-110056883D01*
X174057808Y-110319673D01*
X173915162Y-110663201D01*
X173914838Y-111035167D01*
X174056883Y-111378943D01*
X174319673Y-111642192D01*
X174663201Y-111784838D01*
X174872439Y-111785020D01*
X174815000Y-111923691D01*
X174815000Y-112764250D01*
X174973750Y-112923000D01*
X176123000Y-112923000D01*
X176123000Y-112903000D01*
X176377000Y-112903000D01*
X176377000Y-112923000D01*
X177526250Y-112923000D01*
X177685000Y-112764250D01*
X177685000Y-111923691D01*
X177588327Y-111690302D01*
X177498398Y-111600373D01*
X177740839Y-111552148D01*
X177987401Y-111387401D01*
X178387401Y-110987401D01*
X178552148Y-110740840D01*
X178571770Y-110642192D01*
X178610000Y-110450000D01*
X178610000Y-110035167D01*
X183514838Y-110035167D01*
X183656883Y-110378943D01*
X183690000Y-110412118D01*
X183690000Y-116687537D01*
X183657808Y-116719673D01*
X183515162Y-117063201D01*
X183514838Y-117435167D01*
X183656883Y-117778943D01*
X183919673Y-118042192D01*
X184263201Y-118184838D01*
X184635167Y-118185162D01*
X184978943Y-118043117D01*
X185242192Y-117780327D01*
X185384838Y-117436799D01*
X185385162Y-117064833D01*
X185243117Y-116721057D01*
X185210000Y-116687882D01*
X185210000Y-110412463D01*
X185242192Y-110380327D01*
X185384838Y-110036799D01*
X185385162Y-109664833D01*
X185243117Y-109321057D01*
X184980327Y-109057808D01*
X184636799Y-108915162D01*
X184264833Y-108914838D01*
X183921057Y-109056883D01*
X183657808Y-109319673D01*
X183515162Y-109663201D01*
X183514838Y-110035167D01*
X178610000Y-110035167D01*
X178610000Y-109512923D01*
X178778943Y-109443117D01*
X179042192Y-109180327D01*
X179184838Y-108836799D01*
X179185162Y-108464833D01*
X179043117Y-108121057D01*
X178780327Y-107857808D01*
X178436799Y-107715162D01*
X178064833Y-107714838D01*
X177721057Y-107856883D01*
X177670583Y-107907269D01*
X177653162Y-107814683D01*
X177514090Y-107598559D01*
X177301890Y-107453569D01*
X177085000Y-107409648D01*
X177085000Y-104850000D01*
X177077680Y-104813201D01*
X177021440Y-104530460D01*
X176985152Y-104476152D01*
X176985162Y-104464833D01*
X176972905Y-104435167D01*
X179714838Y-104435167D01*
X179856883Y-104778943D01*
X180119673Y-105042192D01*
X180361910Y-105142778D01*
X180402560Y-105183428D01*
X180402560Y-106650000D01*
X180446838Y-106885317D01*
X180585910Y-107101441D01*
X180798110Y-107246431D01*
X181050000Y-107297440D01*
X183050000Y-107297440D01*
X183285317Y-107253162D01*
X183501441Y-107114090D01*
X183638579Y-106913381D01*
X186912599Y-110187401D01*
X187159161Y-110352148D01*
X187450000Y-110410000D01*
X187887537Y-110410000D01*
X187919673Y-110442192D01*
X188263201Y-110584838D01*
X188635167Y-110585162D01*
X188978943Y-110443117D01*
X189242192Y-110180327D01*
X189384838Y-109836799D01*
X189385162Y-109464833D01*
X189243117Y-109121057D01*
X188980327Y-108857808D01*
X188636799Y-108715162D01*
X188264833Y-108714838D01*
X187921057Y-108856883D01*
X187887882Y-108890000D01*
X187764802Y-108890000D01*
X186159802Y-107285000D01*
X186177002Y-107285000D01*
X186177002Y-107126252D01*
X186335750Y-107285000D01*
X187176309Y-107285000D01*
X187409698Y-107188327D01*
X187588327Y-107009699D01*
X187685000Y-106776310D01*
X187685000Y-106135750D01*
X187526250Y-105977000D01*
X186177000Y-105977000D01*
X186177000Y-105997000D01*
X185923000Y-105997000D01*
X185923000Y-105977000D01*
X185903000Y-105977000D01*
X185903000Y-105723000D01*
X185923000Y-105723000D01*
X185923000Y-104573750D01*
X186177000Y-104573750D01*
X186177000Y-105723000D01*
X187526250Y-105723000D01*
X187685000Y-105564250D01*
X187685000Y-104923690D01*
X187588327Y-104690301D01*
X187409698Y-104511673D01*
X187176309Y-104415000D01*
X186335750Y-104415000D01*
X186177000Y-104573750D01*
X185923000Y-104573750D01*
X185764250Y-104415000D01*
X184923691Y-104415000D01*
X184810000Y-104462092D01*
X184810000Y-102585140D01*
X184835167Y-102585162D01*
X185178943Y-102443117D01*
X185442192Y-102180327D01*
X185584838Y-101836799D01*
X185585162Y-101464833D01*
X185443117Y-101121057D01*
X185180327Y-100857808D01*
X184836799Y-100715162D01*
X184464833Y-100714838D01*
X184121057Y-100856883D01*
X183857808Y-101119673D01*
X183715162Y-101463201D01*
X183715121Y-101510077D01*
X183512599Y-101712599D01*
X183347852Y-101959161D01*
X183290000Y-102250000D01*
X183290000Y-104451161D01*
X183050000Y-104402560D01*
X181983428Y-104402560D01*
X181542535Y-103961667D01*
X181443117Y-103721057D01*
X181180327Y-103457808D01*
X180836799Y-103315162D01*
X180464833Y-103314838D01*
X180121057Y-103456883D01*
X179857808Y-103719673D01*
X179715162Y-104063201D01*
X179714838Y-104435167D01*
X176972905Y-104435167D01*
X176843117Y-104121057D01*
X176580327Y-103857808D01*
X176236799Y-103715162D01*
X176095907Y-103715039D01*
X175230868Y-102850000D01*
X176338333Y-101742535D01*
X176578943Y-101643117D01*
X176842192Y-101380327D01*
X176984838Y-101036799D01*
X176985162Y-100664833D01*
X176885000Y-100422422D01*
X176885000Y-98090854D01*
X177085317Y-98053162D01*
X177301441Y-97914090D01*
X177446431Y-97701890D01*
X177497440Y-97450000D01*
X177497440Y-95450000D01*
X177453162Y-95214683D01*
X177314090Y-94998559D01*
X177101890Y-94853569D01*
X176850000Y-94802560D01*
X175250000Y-94802560D01*
X175014683Y-94846838D01*
X174798559Y-94985910D01*
X174653569Y-95198110D01*
X174602560Y-95450000D01*
X174602560Y-97450000D01*
X174646838Y-97685317D01*
X174785910Y-97901441D01*
X174998110Y-98046431D01*
X175215000Y-98090352D01*
X175215000Y-98834132D01*
X173886229Y-97505361D01*
X173897440Y-97450000D01*
X173897440Y-95450000D01*
X173853162Y-95214683D01*
X173714090Y-94998559D01*
X173501890Y-94853569D01*
X173250000Y-94802560D01*
X171650000Y-94802560D01*
X171414683Y-94846838D01*
X171198559Y-94985910D01*
X171053569Y-95198110D01*
X171002560Y-95450000D01*
X133624615Y-95450000D01*
X133424831Y-94966485D01*
X133035564Y-94576539D01*
X132526702Y-94365241D01*
X131975715Y-94364760D01*
X131466485Y-94575169D01*
X131076539Y-94964436D01*
X130865241Y-95473298D01*
X130864760Y-96024285D01*
X119377000Y-96024285D01*
X119377000Y-92612815D01*
X127444630Y-92612815D01*
X127768980Y-93397800D01*
X128369041Y-93998909D01*
X129153459Y-94324628D01*
X130002815Y-94325370D01*
X130787800Y-94001020D01*
X131388909Y-93400959D01*
X131665128Y-92735750D01*
X171015000Y-92735750D01*
X171015000Y-93576309D01*
X171111673Y-93809698D01*
X171290301Y-93988327D01*
X171523690Y-94085000D01*
X172164250Y-94085000D01*
X172323000Y-93926250D01*
X172323000Y-92577000D01*
X172577000Y-92577000D01*
X172577000Y-93926250D01*
X172735750Y-94085000D01*
X173376310Y-94085000D01*
X173609699Y-93988327D01*
X173788327Y-93809698D01*
X173885000Y-93576309D01*
X173885000Y-92735750D01*
X174615000Y-92735750D01*
X174615000Y-93576309D01*
X174711673Y-93809698D01*
X174890301Y-93988327D01*
X175123690Y-94085000D01*
X175764250Y-94085000D01*
X175923000Y-93926250D01*
X175923000Y-92577000D01*
X176177000Y-92577000D01*
X176177000Y-93926250D01*
X176335750Y-94085000D01*
X176976310Y-94085000D01*
X177209699Y-93988327D01*
X177388327Y-93809698D01*
X177485000Y-93576309D01*
X177485000Y-92735750D01*
X177326250Y-92577000D01*
X176177000Y-92577000D01*
X175923000Y-92577000D01*
X174773750Y-92577000D01*
X174615000Y-92735750D01*
X173885000Y-92735750D01*
X173726250Y-92577000D01*
X172577000Y-92577000D01*
X172323000Y-92577000D01*
X171173750Y-92577000D01*
X171015000Y-92735750D01*
X131665128Y-92735750D01*
X131714628Y-92616541D01*
X131715370Y-91767185D01*
X131532122Y-91323691D01*
X171015000Y-91323691D01*
X171015000Y-92164250D01*
X171173750Y-92323000D01*
X172323000Y-92323000D01*
X172323000Y-90973750D01*
X172577000Y-90973750D01*
X172577000Y-92323000D01*
X173726250Y-92323000D01*
X173885000Y-92164250D01*
X173885000Y-91323691D01*
X174615000Y-91323691D01*
X174615000Y-92164250D01*
X174773750Y-92323000D01*
X175923000Y-92323000D01*
X175923000Y-90973750D01*
X176177000Y-90973750D01*
X176177000Y-92323000D01*
X177326250Y-92323000D01*
X177485000Y-92164250D01*
X177485000Y-91323691D01*
X177388327Y-91090302D01*
X177209699Y-90911673D01*
X176976310Y-90815000D01*
X176335750Y-90815000D01*
X176177000Y-90973750D01*
X175923000Y-90973750D01*
X175764250Y-90815000D01*
X175123690Y-90815000D01*
X174890301Y-90911673D01*
X174711673Y-91090302D01*
X174615000Y-91323691D01*
X173885000Y-91323691D01*
X173788327Y-91090302D01*
X173609699Y-90911673D01*
X173376310Y-90815000D01*
X172735750Y-90815000D01*
X172577000Y-90973750D01*
X172323000Y-90973750D01*
X172164250Y-90815000D01*
X171523690Y-90815000D01*
X171290301Y-90911673D01*
X171111673Y-91090302D01*
X171015000Y-91323691D01*
X131532122Y-91323691D01*
X131391020Y-90982200D01*
X130790959Y-90381091D01*
X130006541Y-90055372D01*
X129157185Y-90054630D01*
X128372200Y-90378980D01*
X127771091Y-90979041D01*
X127445372Y-91763459D01*
X127444630Y-92612815D01*
X119377000Y-92612815D01*
X119377000Y-87000000D01*
X137352560Y-87000000D01*
X137352560Y-88700000D01*
X137396838Y-88935317D01*
X137535910Y-89151441D01*
X137748110Y-89296431D01*
X138000000Y-89347440D01*
X139700000Y-89347440D01*
X139935317Y-89303162D01*
X140151441Y-89164090D01*
X140296431Y-88951890D01*
X140310086Y-88884459D01*
X140339946Y-88929147D01*
X140821715Y-89251054D01*
X141390000Y-89364093D01*
X141958285Y-89251054D01*
X142440054Y-88929147D01*
X142660000Y-88599974D01*
X142879946Y-88929147D01*
X143361715Y-89251054D01*
X143930000Y-89364093D01*
X144498285Y-89251054D01*
X144980054Y-88929147D01*
X145207702Y-88588447D01*
X145274817Y-88731358D01*
X145703076Y-89121645D01*
X146113110Y-89291476D01*
X146343000Y-89170155D01*
X146343000Y-87977000D01*
X146597000Y-87977000D01*
X146597000Y-89170155D01*
X146826890Y-89291476D01*
X147236924Y-89121645D01*
X147665183Y-88731358D01*
X147911486Y-88206892D01*
X147790819Y-87977000D01*
X146597000Y-87977000D01*
X146343000Y-87977000D01*
X146323000Y-87977000D01*
X146323000Y-87723000D01*
X146343000Y-87723000D01*
X146343000Y-86529845D01*
X146597000Y-86529845D01*
X146597000Y-87723000D01*
X147790819Y-87723000D01*
X147911486Y-87493108D01*
X147665183Y-86968642D01*
X147236924Y-86578355D01*
X146826890Y-86408524D01*
X146597000Y-86529845D01*
X146343000Y-86529845D01*
X146113110Y-86408524D01*
X145703076Y-86578355D01*
X145274817Y-86968642D01*
X145207702Y-87111553D01*
X144980054Y-86770853D01*
X144498285Y-86448946D01*
X143930000Y-86335907D01*
X143361715Y-86448946D01*
X142879946Y-86770853D01*
X142660000Y-87100026D01*
X142440054Y-86770853D01*
X141958285Y-86448946D01*
X141390000Y-86335907D01*
X140821715Y-86448946D01*
X140339946Y-86770853D01*
X140312150Y-86812452D01*
X140303162Y-86764683D01*
X140164090Y-86548559D01*
X139951890Y-86403569D01*
X139700000Y-86352560D01*
X138000000Y-86352560D01*
X137764683Y-86396838D01*
X137548559Y-86535910D01*
X137403569Y-86748110D01*
X137352560Y-87000000D01*
X119377000Y-87000000D01*
X119377000Y-82377000D01*
X194123000Y-82377000D01*
X194123000Y-123123000D01*
M02*
