G04 #@! TF.FileFunction,Soldermask,Top*
%FSLAX46Y46*%
G04 Gerber Fmt 4.6, Leading zero omitted, Abs format (unit mm)*
G04 Created by KiCad (PCBNEW 4.0.5+dfsg1-4) date Sun Jul 16 22:59:55 2017*
%MOMM*%
%LPD*%
G01*
G04 APERTURE LIST*
%ADD10C,0.100000*%
%ADD11R,2.000000X0.950000*%
%ADD12R,0.950000X2.000000*%
%ADD13R,2.000000X2.400000*%
%ADD14R,0.850000X2.150000*%
%ADD15R,2.400000X2.000000*%
%ADD16R,2.100000X2.400000*%
%ADD17R,2.400000X2.100000*%
%ADD18R,2.100000X2.100000*%
%ADD19O,2.100000X2.100000*%
%ADD20C,1.900000*%
%ADD21C,3.400000*%
%ADD22R,1.441400X1.390600*%
%ADD23R,2.609800X1.441400*%
%ADD24R,1.000000X1.950000*%
%ADD25R,2.150000X0.850000*%
%ADD26R,2.200000X1.940000*%
G04 APERTURE END LIST*
D10*
D11*
X154360000Y-99910000D03*
X154360000Y-100710000D03*
X154360000Y-101510000D03*
X154360000Y-102310000D03*
X154360000Y-103110000D03*
X154360000Y-103910000D03*
X154360000Y-104710000D03*
X154360000Y-105510000D03*
D12*
X155810000Y-106960000D03*
X156610000Y-106960000D03*
X157410000Y-106960000D03*
X158210000Y-106960000D03*
X159010000Y-106960000D03*
X159810000Y-106960000D03*
X160610000Y-106960000D03*
X161410000Y-106960000D03*
D11*
X162860000Y-105510000D03*
X162860000Y-104710000D03*
X162860000Y-103910000D03*
X162860000Y-103110000D03*
X162860000Y-102310000D03*
X162860000Y-101510000D03*
X162860000Y-100710000D03*
X162860000Y-99910000D03*
D12*
X161410000Y-98460000D03*
X160610000Y-98460000D03*
X159810000Y-98460000D03*
X159010000Y-98460000D03*
X158210000Y-98460000D03*
X157410000Y-98460000D03*
X156610000Y-98460000D03*
X155810000Y-98460000D03*
D13*
X133500000Y-117050000D03*
X133500000Y-121050000D03*
D14*
X169625000Y-106310000D03*
X170275000Y-106310000D03*
X170925000Y-106310000D03*
X171575000Y-106310000D03*
X172225000Y-106310000D03*
X172875000Y-106310000D03*
X173525000Y-106310000D03*
X174175000Y-106310000D03*
X174825000Y-106310000D03*
X175475000Y-106310000D03*
X176125000Y-106310000D03*
X176775000Y-106310000D03*
X177425000Y-106310000D03*
X178075000Y-106310000D03*
X178075000Y-99110000D03*
X177425000Y-99110000D03*
X176775000Y-99110000D03*
X176125000Y-99110000D03*
X175475000Y-99110000D03*
X174825000Y-99110000D03*
X174175000Y-99110000D03*
X173525000Y-99110000D03*
X172875000Y-99110000D03*
X172225000Y-99110000D03*
X171575000Y-99110000D03*
X170925000Y-99110000D03*
X170275000Y-99110000D03*
X169625000Y-99110000D03*
D15*
X167250000Y-119250000D03*
X171250000Y-119250000D03*
X188450000Y-117250000D03*
X192450000Y-117250000D03*
D13*
X136850000Y-101050000D03*
X136850000Y-105050000D03*
X191450000Y-91650000D03*
X191450000Y-87650000D03*
D15*
X185650000Y-89050000D03*
X181650000Y-89050000D03*
D13*
X173250000Y-95850000D03*
X173250000Y-91850000D03*
X137050000Y-117050000D03*
X137050000Y-121050000D03*
D15*
X178250000Y-86450000D03*
X174250000Y-86450000D03*
D13*
X140850000Y-117050000D03*
X140850000Y-121050000D03*
X181250000Y-95050000D03*
X181250000Y-99050000D03*
X140855000Y-113995000D03*
X140855000Y-109995000D03*
X171450000Y-88850000D03*
X171450000Y-84850000D03*
X183850000Y-95050000D03*
X183850000Y-99050000D03*
X137045000Y-113995000D03*
X137045000Y-109995000D03*
X163650000Y-88850000D03*
X163650000Y-84850000D03*
X168850000Y-88850000D03*
X168850000Y-84850000D03*
X158450000Y-88850000D03*
X158450000Y-84850000D03*
X155850000Y-88850000D03*
X155850000Y-84850000D03*
X161050000Y-88850000D03*
X161050000Y-84850000D03*
X166250000Y-88850000D03*
X166250000Y-84850000D03*
X133485000Y-113995000D03*
X133485000Y-109995000D03*
X189250000Y-99050000D03*
X189250000Y-95050000D03*
D16*
X188850000Y-87650000D03*
X188850000Y-91650000D03*
D17*
X181650000Y-86450000D03*
X185650000Y-86450000D03*
D16*
X178650000Y-91850000D03*
X178650000Y-95850000D03*
D17*
X178250000Y-89050000D03*
X174250000Y-89050000D03*
X185650000Y-91650000D03*
X181650000Y-91650000D03*
D16*
X186650000Y-95050000D03*
X186650000Y-99050000D03*
D18*
X138850000Y-87850000D03*
D19*
X141390000Y-87850000D03*
X143930000Y-87850000D03*
X146470000Y-87850000D03*
D20*
X132250000Y-102860000D03*
X132250000Y-100320000D03*
X132250000Y-98290000D03*
X132250000Y-95750000D03*
D21*
X129580000Y-105910000D03*
X129580000Y-92190000D03*
D22*
X152986700Y-86250000D03*
D23*
X151450000Y-84776800D03*
D22*
X149938700Y-86250000D03*
D23*
X151450000Y-87723200D03*
D18*
X129655000Y-119305000D03*
D19*
X129655000Y-116765000D03*
X129655000Y-114225000D03*
D17*
X176650000Y-113250000D03*
X180650000Y-113250000D03*
D16*
X183250000Y-111450000D03*
X183250000Y-115450000D03*
X185850000Y-115450000D03*
X185850000Y-111450000D03*
X191450000Y-107650000D03*
X191450000Y-103650000D03*
X188850000Y-103650000D03*
X188850000Y-107650000D03*
X175850000Y-95850000D03*
X175850000Y-91850000D03*
D24*
X182145000Y-108550000D03*
X183415000Y-108550000D03*
X184685000Y-108550000D03*
X185955000Y-108550000D03*
X185955000Y-103150000D03*
X184685000Y-103150000D03*
X183415000Y-103150000D03*
X182145000Y-103150000D03*
D25*
X147850000Y-106975000D03*
X147850000Y-106325000D03*
X147850000Y-105675000D03*
X147850000Y-105025000D03*
X147850000Y-104375000D03*
X147850000Y-103725000D03*
X147850000Y-103075000D03*
X147850000Y-102425000D03*
X147850000Y-101775000D03*
X147850000Y-101125000D03*
X147850000Y-100475000D03*
X147850000Y-99825000D03*
X147850000Y-99175000D03*
X147850000Y-98525000D03*
X140650000Y-98525000D03*
X140650000Y-99175000D03*
X140650000Y-99825000D03*
X140650000Y-100475000D03*
X140650000Y-101125000D03*
X140650000Y-101775000D03*
X140650000Y-102425000D03*
X140650000Y-103075000D03*
X140650000Y-103725000D03*
X140650000Y-104375000D03*
X140650000Y-105025000D03*
X140650000Y-105675000D03*
X140650000Y-106325000D03*
X140650000Y-106975000D03*
D26*
X191450000Y-114390000D03*
X191450000Y-111710000D03*
X188650000Y-111710000D03*
X188650000Y-114390000D03*
D18*
X163750000Y-116500000D03*
D19*
X163750000Y-119040000D03*
X161210000Y-116500000D03*
X161210000Y-119040000D03*
X158670000Y-116500000D03*
X158670000Y-119040000D03*
M02*
