M48
;DRILL file {KiCad 4.0.5+dfsg1-4} date Sun Jul 16 22:59:51 2017
;FORMAT={-:-/ absolute / inch / decimal}
FMAT,2
INCH,TZ
T1C0.016
T2C0.039
T3C0.091
%
G90
G05
M72
T1
X5.4429Y-3.878
X5.4587Y-4.002
X5.4744Y-4.5453
X5.5906Y-3.9567
X5.6102Y-4.4882
X5.6201Y-4.0059
X5.6496Y-3.9567
X5.748Y-4.1339
X5.8957Y-4.1339
X5.8957Y-4.2323
X5.9252Y-3.8583
X5.935Y-4.4882
X5.9547Y-4.5472
X5.9646Y-4.065
X6.0433Y-4.6457
X6.1319Y-3.9961
X6.1319Y-4.065
X6.1614Y-3.9665
X6.1811Y-4.3701
X6.2303Y-3.937
X6.2598Y-4.1437
X6.2598Y-4.3996
X6.2894Y-3.9665
X6.2894Y-4.0945
X6.2894Y-4.4291
X6.3189Y-4.1437
X6.3287Y-4.065
X6.3484Y-3.9961
X6.4469Y-4.2126
X6.4764Y-3.9961
X6.5689Y-4.1516
X6.5689Y-4.498
X6.7224Y-3.9665
X6.8051Y-4.1201
X6.8602Y-4.0571
X6.876Y-3.9705
X6.8839Y-4.3642
X6.9311Y-3.9705
X6.9311Y-4.1201
X6.9882Y-4.5866
X7.0177Y-4.2776
X7.1122Y-4.1043
X7.2618Y-4.3248
X7.2618Y-4.6161
X7.2697Y-4.002
X7.4193Y-4.3169
T2
X5.1045Y-4.497
X5.1045Y-4.597
X5.1045Y-4.697
X5.2067Y-3.7697
X5.2067Y-3.8697
X5.2067Y-3.9496
X5.2067Y-4.0496
X5.4665Y-3.4587
X5.5665Y-3.4587
X5.6665Y-3.4587
X5.7665Y-3.4587
X6.2469Y-4.5866
X6.2469Y-4.6866
X6.3469Y-4.5866
X6.3469Y-4.6866
X6.4469Y-4.5866
X6.4469Y-4.6866
T3
X5.1016Y-3.6295
X5.1016Y-4.1697
T0
M30
